<svg width="15" height="15" viewBox="0 0 15 15" fill="none" xmlns="http://www.w3.org/2000/svg">
<path fill-rule="evenodd" clip-rule="evenodd" d="M0.858665 14.1067C0.384438 13.6325 0.382666 12.8654 0.854708 12.3933L12.3933 0.854793C12.8653 0.382751 13.6324 0.384524 14.1066 0.858751C14.5809 1.33298 14.5826 2.10008 14.1106 2.57212L2.57204 14.1107C2.09999 14.5827 1.33289 14.5809 0.858665 14.1067Z" fill="#3FE994"/>
<path fill-rule="evenodd" clip-rule="evenodd" d="M14.1067 14.1072C13.6325 14.5814 12.8654 14.5832 12.3933 14.1111L0.854787 2.57257C0.382745 2.10052 0.384517 1.33342 0.858745 0.859195C1.33297 0.384968 2.10007 0.383196 2.57212 0.855238L14.1107 12.3938C14.5827 12.8658 14.5809 13.6329 14.1067 14.1072Z" fill="#3FE994"/>
</svg>
