<svg width="136" height="22" viewBox="0 0 136 22" fill="none" xmlns="http://www.w3.org/2000/svg">
<path d="M30.8768 7.39077C30.8707 7.5686 30.8128 7.74084 30.7103 7.88661C30.6077 8.03238 30.4648 8.14543 30.299 8.21205L16.2988 14.5976C16.0533 14.7121 15.789 14.7817 15.5187 14.8029C15.3126 14.8166 15.1064 14.777 14.9202 14.6879L5.48081 10.446L10.7309 8.10529C10.8236 8.07308 10.909 8.02291 10.9821 7.95768C11.0552 7.89244 11.1146 7.81343 11.1568 7.72522C11.199 7.63701 11.2232 7.54134 11.2281 7.44376C11.2329 7.34618 11.2182 7.24861 11.1849 7.1567C11.1729 7.12314 11.1591 7.09024 11.1436 7.05814C11.0286 6.86567 10.8459 6.72255 10.6308 6.65654C10.4157 6.59053 10.1837 6.60634 9.9797 6.70088L3.54917 9.57539L0.548536 8.21205C0.32966 8.1205 0.156277 7.94623 0.066498 7.72754C-0.0232812 7.50886 -0.0221096 7.26365 0.0697553 7.04583C0.161289 6.83132 0.332938 6.66055 0.548536 6.56948L14.9202 0.114161C15.0788 0.0390015 15.2522 0 15.4279 0C15.6035 0 15.777 0.0390015 15.9356 0.114161L30.299 6.56948C30.4634 6.63821 30.6048 6.7518 30.7071 6.89712C30.8093 7.04245 30.8682 7.21358 30.8768 7.39077Z" fill="white"/>
<path d="M18.0798 15.5661C17.6131 15.8119 17.1289 16.0232 16.631 16.1984C16.2692 16.3463 15.8861 16.4364 15.496 16.4654H15.4258C15.0811 16.4259 14.7474 16.3199 14.4435 16.1533C13.4488 15.7139 12.9535 15.4962 12.7389 15.3772C12.5958 15.2978 11.3177 14.7119 8.90451 13.6196L7.1875 12.8517V16.4243C7.1875 19.5 10.8733 22.0008 15.4423 22.0008C20.0114 22.0008 23.6972 19.5 23.6972 16.4243V12.7531C21.3363 13.8988 20.4241 14.4491 18.0798 15.5661Z" fill="white"/>
<path d="M4.01124 11.3532V15.6445C3.99041 15.8851 4.06515 16.1244 4.21945 16.3109C4.37374 16.4974 4.59533 16.6164 4.83672 16.6423C5.07638 16.6214 5.29791 16.5068 5.45268 16.3236C5.60745 16.1403 5.68281 15.9035 5.66221 15.665L5.6911 12.2566V12.2033L4.01124 11.3532Z" fill="white"/>
<path d="M46.3971 16.5394C46.4939 16.4717 46.6013 16.4204 46.7149 16.3875C46.7867 16.3709 46.8601 16.3627 46.9337 16.3628C47 16.3671 47.0642 16.3873 47.121 16.4216C47.1777 16.456 47.2253 16.5034 47.2597 16.5599L47.528 16.9295L48.3205 18.067C48.3571 18.1166 48.3876 18.1703 48.4113 18.2271C48.4305 18.2742 48.4417 18.3242 48.4443 18.375C48.4441 18.4933 48.4 18.6073 48.3205 18.6953C48.2211 18.7982 48.1134 18.893 47.9986 18.9786C47.3629 19.4384 46.669 19.8126 45.9348 20.0915C45.1608 20.3749 44.3409 20.5141 43.5162 20.5021C42.8632 20.5032 42.2132 20.4148 41.5845 20.2393C40.9727 20.0716 40.3857 19.8244 39.8386 19.5042C39.3097 19.1868 38.8218 18.8062 38.3858 18.3709C37.9396 17.9299 37.5513 17.4346 37.2301 16.8967C36.5607 15.7795 36.211 14.5015 36.2189 13.2009C36.2164 12.5433 36.3038 11.8885 36.4789 11.2544C36.65 10.6406 36.9026 10.0523 37.2301 9.50507C38.2021 7.87672 39.7628 6.67948 41.5928 6.15832C42.9995 5.77206 44.4901 5.81354 45.8729 6.27741C46.5874 6.51056 47.2592 6.85725 47.8623 7.30402C47.9582 7.40208 48.0602 7.49398 48.1678 7.57915C48.2215 7.62194 48.2636 7.67742 48.2903 7.74053C48.3169 7.80364 48.3273 7.87239 48.3205 7.94051V8.09656C48.3168 8.15623 48.2952 8.21343 48.2586 8.26082L47.3423 9.6529C47.294 9.74494 47.2235 9.82357 47.137 9.88165C47.0505 9.93972 46.9508 9.97543 46.847 9.98552C46.6921 9.97014 46.5468 9.90365 46.4343 9.79662C46.037 9.4661 45.5881 9.20254 45.1052 9.0164C44.6076 8.81892 44.0767 8.7172 43.5409 8.71663C42.9703 8.71241 42.4061 8.83592 41.89 9.078C41.3844 9.31964 40.9282 9.6524 40.5444 10.0594C39.7284 10.9072 39.2709 12.0345 39.2663 13.2083C39.2617 14.3821 39.7104 15.5128 40.5197 16.3669C40.9041 16.7657 41.3606 17.0889 41.8652 17.3196C42.3835 17.5539 42.9469 17.6731 43.5162 17.6687C44.0841 17.6812 44.6478 17.5691 45.1671 17.3401C45.6062 17.1203 46.0188 16.8517 46.3971 16.5394Z" fill="white"/>
<path d="M61.4492 18.6871C60.8051 19.2332 60.0796 19.6765 59.2988 20.0012C58.4824 20.3248 57.6103 20.4866 56.7316 20.4775C55.7482 20.4813 54.7742 20.2886 53.8671 19.9109C52.0875 19.1753 50.6601 17.7875 49.88 16.0344C49.4763 15.1298 49.2722 14.1496 49.2816 13.1599C49.2819 11.8844 49.6071 10.6299 50.2267 9.51336C50.5286 8.97543 50.899 8.47855 51.3288 8.03505C51.7572 7.58838 52.2446 7.20159 52.7775 6.88524C53.3186 6.56017 53.9019 6.3101 54.511 6.14198C55.1535 5.96575 55.8174 5.87869 56.4839 5.88327C57.0503 5.8817 57.6146 5.95067 58.1638 6.0886C59.2536 6.35895 60.2671 6.87296 61.1273 7.59155C61.5571 7.95337 61.9398 8.36722 62.2664 8.82348C62.7082 9.43482 63.0418 10.1167 63.2529 10.8397C63.4684 11.6181 63.5739 12.4224 63.5666 13.2297C63.5672 13.4108 63.5576 13.5917 63.5377 13.7717C63.5245 13.8988 63.4759 14.0197 63.3973 14.1208C63.3093 14.2196 63.1924 14.2885 63.063 14.3179C62.8574 14.3649 62.6466 14.3856 62.4357 14.3795H52.5298C52.6155 14.8842 52.8037 15.3663 53.0829 15.7962C53.3512 16.1949 53.6846 16.546 54.0694 16.8351C54.4349 17.1182 54.8468 17.3363 55.287 17.4798C55.7128 17.6219 56.1586 17.6954 56.6077 17.6975C56.9325 17.6983 57.2563 17.6639 57.5736 17.5948C57.8701 17.5327 58.1603 17.4434 58.4403 17.3279C58.6994 17.2212 58.9493 17.0935 59.1874 16.946C59.3999 16.8134 59.6002 16.6622 59.7859 16.4943C59.8672 16.4232 59.9542 16.3586 60.0459 16.3013C60.122 16.2522 60.211 16.2265 60.3018 16.2274C60.382 16.2323 60.4598 16.2562 60.5288 16.2972C60.6281 16.3517 60.7141 16.4274 60.7806 16.5189L61.2965 17.1308L61.6432 17.5414C61.7186 17.6311 61.7837 17.7289 61.8372 17.833C61.8785 17.9048 61.9038 17.9847 61.9115 18.0671C61.8914 18.2002 61.8387 18.3264 61.7581 18.4345C61.6775 18.5426 61.5714 18.6294 61.4492 18.6871ZM56.4963 8.65101C56.0574 8.65141 55.6222 8.73214 55.2127 8.88919C54.8 9.04696 54.4144 9.2672 54.0694 9.54211C53.7194 9.81624 53.4132 10.1416 53.1613 10.5071C52.9053 10.8727 52.7154 11.2798 52.6 11.7103H60.5164C60.4008 11.2745 60.2184 10.859 59.9757 10.4784C59.7365 10.1108 59.4397 9.78359 59.0966 9.50926C58.7441 9.23343 58.3461 9.02082 57.9203 8.88097C57.4625 8.72884 56.983 8.65119 56.5004 8.65101H56.4963Z" fill="white"/>
<path d="M65.7118 6.77029C65.7047 6.67717 65.7209 6.58374 65.7591 6.49843C65.7973 6.41312 65.8562 6.33861 65.9306 6.28162C66.0639 6.17158 66.232 6.11195 66.4052 6.11326H67.8333C67.9103 6.10939 67.9872 6.12248 68.0586 6.15158C68.1299 6.18068 68.1939 6.22508 68.2461 6.28162C68.3488 6.40122 68.4248 6.5412 68.4689 6.69227C68.524 6.86486 68.5627 7.04222 68.5845 7.222C68.5921 7.39675 68.6184 7.5702 68.6629 7.73941C68.8324 7.50319 69.0171 7.27822 69.216 7.06595C69.4241 6.84322 69.6583 6.64608 69.9135 6.47873C70.5095 6.09646 71.2063 5.8992 71.9153 5.91204C72.2525 5.90789 72.5895 5.93262 72.9224 5.98596C73.2145 6.03516 73.5017 6.10935 73.7809 6.20771C74.0594 6.31809 74.3263 6.45564 74.5775 6.61835C74.8627 6.79094 75.1382 6.97874 75.403 7.18093C75.5231 7.26005 75.6338 7.35234 75.7332 7.45606C75.8225 7.55853 75.871 7.69002 75.8694 7.82564C75.8628 7.88929 75.8517 7.9524 75.8364 8.01454C75.8204 8.08642 75.791 8.15468 75.7497 8.21575L74.8293 9.66122C74.7762 9.73205 74.7049 9.78736 74.6229 9.82137C74.5576 9.84981 74.4877 9.8665 74.4166 9.87065C74.2956 9.8709 74.1765 9.84127 74.0699 9.78441C73.8263 9.6489 73.5993 9.52571 73.4012 9.40662C73.2092 9.29267 73.0108 9.18984 72.8069 9.09864C72.6141 9.01326 72.4137 8.9459 72.2084 8.89742C71.9818 8.84961 71.7507 8.82621 71.5191 8.82761C70.9099 8.81564 70.3192 9.03603 69.8681 9.44358C69.3746 9.91167 69.0448 10.5247 68.9271 11.1929V19.5783C68.9271 20.0218 68.6959 20.2435 68.2295 20.2435H66.3887C65.9265 20.2435 65.6953 20.0218 65.6953 19.5783L65.7118 6.77029Z" fill="white"/>
<path d="M83.6741 20.2437C83.1131 20.2415 82.556 20.1514 82.0232 19.9768C81.5274 19.8214 81.0674 19.5702 80.6694 19.2376C80.2823 18.912 79.9722 18.5054 79.7613 18.0467C79.5264 17.5429 79.4106 16.9923 79.4229 16.437V8.91812H78.1393C77.9648 8.93084 77.7916 8.87974 77.6522 8.77439C77.5933 8.71071 77.5484 8.63537 77.5207 8.5533C77.493 8.47122 77.4829 8.38424 77.4913 8.29805V6.70064C77.4827 6.61756 77.4927 6.53361 77.5205 6.45481C77.5483 6.37601 77.5933 6.30431 77.6522 6.24483C77.7945 6.14646 77.9666 6.10004 78.1393 6.11342H79.4229V3.76454C79.4194 3.69972 79.4302 3.63492 79.4545 3.57465C79.4787 3.51438 79.5158 3.46007 79.5632 3.41549C79.6841 3.31229 79.8244 3.23411 79.976 3.18553L80.4836 3.02538L81.0367 2.84059C81.2307 2.7831 81.4123 2.73383 81.5939 2.69276C81.7397 2.65562 81.8892 2.63496 82.0397 2.63116C82.2708 2.63116 82.4235 2.69276 82.4937 2.82006C82.5689 2.97611 82.6043 3.14816 82.5969 3.32105V6.11342H84.1983C84.2788 6.10757 84.3596 6.11762 84.4361 6.14299C84.5126 6.16836 84.5833 6.20856 84.6441 6.26125C84.7016 6.32494 84.7452 6.39977 84.7722 6.48104C84.7992 6.56232 84.809 6.64827 84.8009 6.73349V8.25288C84.8098 8.34384 84.8005 8.43566 84.7736 8.52304C84.7466 8.61042 84.7026 8.69165 84.6441 8.76207C84.5846 8.81723 84.5143 8.85956 84.4376 8.88642C84.3609 8.91327 84.2794 8.92406 84.1983 8.91812H82.5886V14.6343C82.5846 14.6491 82.5846 14.6647 82.5886 14.6794V16.1372C82.5539 16.5134 82.6565 16.8895 82.8776 17.1967C83.0028 17.3132 83.1514 17.402 83.3136 17.4572C83.4758 17.5124 83.6479 17.5328 83.8186 17.517C83.8889 17.5139 83.9589 17.5276 84.0228 17.5569C84.0867 17.5862 84.1426 17.6302 84.1859 17.6854C84.2794 17.8015 84.3277 17.9473 84.3221 18.096V19.64C84.3301 19.8058 84.2723 19.968 84.1612 20.0917C84.0957 20.1503 84.0183 20.1941 83.9342 20.2203C83.8502 20.2466 83.7615 20.2545 83.6741 20.2437Z" fill="white"/>
<path d="M87.6319 1.8629C87.6081 1.70939 87.6465 1.55277 87.7385 1.42732C87.8306 1.30187 87.9688 1.21782 88.123 1.19356C88.1847 1.18532 88.2471 1.18532 88.3088 1.19356H90.1867C90.3697 1.1864 90.5488 1.24632 90.6903 1.36192C90.7566 1.42669 90.808 1.50507 90.8407 1.59158C90.8735 1.6781 90.887 1.77069 90.8802 1.8629V3.53012C90.8766 3.70675 90.8142 3.8772 90.7027 4.01468C90.6429 4.08978 90.5661 4.14976 90.4786 4.18972C90.3911 4.22969 90.2953 4.2485 90.1991 4.24464H88.3253C87.8754 4.24464 87.6525 4.00646 87.6525 3.53012L87.6319 1.8629ZM87.6319 6.79063C87.6264 6.6139 87.6867 6.44138 87.8011 6.30607C87.8634 6.23963 87.9398 6.18783 88.0248 6.15445C88.1098 6.12106 88.2011 6.10693 88.2923 6.11307H90.1496C90.2315 6.11341 90.3126 6.12872 90.389 6.15824C90.4729 6.19175 90.5499 6.24048 90.616 6.30196C90.6835 6.36526 90.7406 6.4387 90.7852 6.5196C90.8297 6.60152 90.8525 6.6934 90.8513 6.78652V19.5781C90.8513 20.0216 90.616 20.2433 90.1455 20.2433H88.3253C88.1693 20.2656 88.0108 20.2253 87.8846 20.1314C87.7585 20.0375 87.675 19.8975 87.6525 19.7423C87.6442 19.6879 87.6442 19.6325 87.6525 19.5781L87.6319 6.79063Z" fill="white"/>
<path d="M95.285 6.15825C95.2816 5.50977 95.3833 4.86499 95.5863 4.24876C95.775 3.65863 96.0748 3.10958 96.4696 2.63082C96.8727 2.13862 97.3833 1.74443 97.9627 1.47828C98.5421 1.21214 99.1748 1.08105 99.8128 1.09501H99.9242C100.017 1.08902 100.11 1.10318 100.197 1.1365C100.284 1.16982 100.363 1.22152 100.428 1.28802C100.551 1.43638 100.615 1.62532 100.605 1.81775V3.35355C100.611 3.54989 100.55 3.74247 100.432 3.89971C100.377 3.97232 100.305 4.03047 100.222 4.06912C100.139 4.10776 100.049 4.12573 99.9573 4.12146C99.8166 4.13016 99.6777 4.15778 99.5445 4.20358C99.3675 4.26391 99.2016 4.35269 99.0534 4.4664C98.8869 4.59019 98.7478 4.74674 98.6447 4.92632C98.5255 5.12438 98.4667 5.35265 98.4755 5.58335V7.39018H100.098C100.28 7.37948 100.46 7.43819 100.601 7.55444C100.667 7.63096 100.716 7.71983 100.747 7.81576C100.777 7.9117 100.788 8.01274 100.779 8.11291V9.48036C100.795 9.69129 100.732 9.90081 100.601 10.0676C100.535 10.1326 100.456 10.1833 100.37 10.2165C100.283 10.2497 100.19 10.2647 100.098 10.2606H98.4755V19.5206C98.4822 19.623 98.4643 19.7256 98.4235 19.8198C98.3826 19.914 98.3198 19.9972 98.2403 20.0626C98.0939 20.1795 97.9119 20.2432 97.7243 20.2433H95.9908C95.8942 20.2496 95.7975 20.2345 95.7075 20.199C95.6176 20.1635 95.5367 20.1085 95.4707 20.038C95.3447 19.8957 95.2795 19.71 95.2891 19.5206V10.2647H94.1789C94.083 10.2688 93.9873 10.2538 93.8972 10.2207C93.8072 10.1875 93.7248 10.1369 93.6547 10.0717C93.5822 9.99292 93.5268 9.90011 93.492 9.79906C93.4572 9.69802 93.4437 9.59092 93.4524 9.48446V8.1047C93.4425 8.00252 93.4555 7.89943 93.4905 7.80286C93.5255 7.70629 93.5816 7.61864 93.6547 7.54622C93.8043 7.43134 93.9901 7.37312 94.1789 7.38197H95.2891L95.285 6.15825Z" fill="white"/>
<path d="M102.632 1.86289C102.62 1.78658 102.624 1.70871 102.642 1.63375C102.661 1.55879 102.694 1.4882 102.74 1.42603C102.786 1.36386 102.844 1.31133 102.91 1.27144C102.977 1.23154 103.05 1.20507 103.127 1.19354C103.182 1.18532 103.237 1.18532 103.292 1.19354H105.17C105.353 1.18639 105.532 1.2463 105.674 1.36191C105.74 1.42668 105.791 1.50505 105.824 1.59157C105.857 1.67809 105.87 1.77068 105.864 1.86289V3.5301C105.86 3.70673 105.798 3.87719 105.686 4.01466C105.626 4.08977 105.55 4.14975 105.462 4.18971C105.374 4.22967 105.279 4.24849 105.183 4.24462H103.305C102.855 4.24462 102.632 4.00645 102.632 3.5301V1.86289ZM102.632 6.79061C102.624 6.61358 102.685 6.44035 102.801 6.30605C102.863 6.23914 102.939 6.18702 103.024 6.1536C103.109 6.12018 103.201 6.10632 103.292 6.11305H105.149C105.236 6.11315 105.321 6.12989 105.401 6.16233C105.485 6.19584 105.562 6.24458 105.628 6.30605C105.695 6.37019 105.752 6.44348 105.798 6.5237C105.842 6.60561 105.865 6.69749 105.864 6.79061V19.5781C105.864 20.0216 105.628 20.2433 105.158 20.2433H103.305C103.149 20.2656 102.99 20.2253 102.864 20.1314C102.738 20.0374 102.654 19.8975 102.632 19.7423C102.624 19.6879 102.624 19.6325 102.632 19.5781V6.79061Z" fill="white"/>
<path d="M120.933 18.6871C120.288 19.2342 119.561 19.6776 118.778 20.0012C117.962 20.3248 117.09 20.4866 116.211 20.4776C115.229 20.4817 114.256 20.289 113.351 19.9109C111.573 19.177 110.149 17.7882 109.376 16.0344C108.972 15.1298 108.768 14.1496 108.778 13.1599C108.769 11.8834 109.095 10.6267 109.723 9.51337C110.025 8.97544 110.395 8.47856 110.825 8.03505C111.251 7.58751 111.737 7.20059 112.269 6.88525C113.39 6.21493 114.676 5.86801 115.984 5.88328C116.549 5.8817 117.112 5.95068 117.66 6.0886C118.205 6.22268 118.732 6.41832 119.232 6.67172C119.729 6.92666 120.195 7.23513 120.623 7.59156C121.644 8.43055 122.385 9.55723 122.749 10.8233C122.967 11.6012 123.072 12.4059 123.063 13.2133C123.053 13.3952 123.031 13.5763 122.997 13.7553C122.984 13.8826 122.936 14.0037 122.856 14.1044C122.768 14.2032 122.651 14.2721 122.522 14.3015C122.316 14.3485 122.105 14.3692 121.895 14.3631H111.989C112.072 14.8683 112.261 15.3508 112.542 15.7798C112.807 16.1843 113.139 16.5411 113.524 16.8351C113.897 17.1185 114.316 17.3365 114.762 17.4799C115.187 17.6219 115.631 17.6953 116.079 17.6975C116.405 17.6983 116.73 17.6639 117.049 17.5948C117.346 17.5327 117.636 17.4434 117.916 17.3279C118.174 17.2212 118.422 17.0935 118.659 16.946C118.871 16.8134 119.072 16.6622 119.257 16.4943C119.336 16.4219 119.422 16.3572 119.513 16.3013C119.589 16.2522 119.678 16.2265 119.769 16.2274C119.851 16.2317 119.93 16.2556 120 16.2972C120.098 16.3541 120.183 16.4294 120.252 16.5189C120.454 16.7612 120.623 16.9666 120.768 17.1308L121.115 17.5415C121.188 17.6328 121.253 17.7304 121.309 17.833C121.348 17.9079 121.369 17.9908 121.37 18.0753C121.352 18.2045 121.302 18.3275 121.226 18.4339C121.15 18.5403 121.049 18.6271 120.933 18.6871ZM115.98 8.65102C115.54 8.64937 115.103 8.73017 114.692 8.88919C114.278 9.04653 113.891 9.26678 113.545 9.54211C113.196 9.81637 112.891 10.1418 112.641 10.5071C112.385 10.8734 112.194 11.2803 112.075 11.7103H119.996C119.88 11.274 119.696 10.8584 119.451 10.4784C119.213 10.1098 118.916 9.78249 118.572 9.50926C118.221 9.2335 117.824 9.02087 117.4 8.88098C116.942 8.72884 116.463 8.65119 115.98 8.65102Z" fill="white"/>
<path d="M125.513 6.77015C125.507 6.6772 125.524 6.58424 125.562 6.49917C125.6 6.4141 125.658 6.33943 125.732 6.28148C125.867 6.17207 126.036 6.11258 126.21 6.11312H127.634C127.711 6.10925 127.788 6.12233 127.86 6.15144C127.931 6.18054 127.995 6.22494 128.047 6.28148C128.151 6.40085 128.228 6.54081 128.274 6.69212C128.328 6.86482 128.365 7.04218 128.385 7.22185C128.406 7.41075 128.435 7.58322 128.464 7.73927C128.634 7.50383 128.819 7.27893 129.017 7.06581C129.227 6.84395 129.463 6.64692 129.719 6.47859C129.992 6.30081 130.289 6.16255 130.602 6.06795C130.965 5.96074 131.342 5.90815 131.72 5.9119C132.058 5.90775 132.395 5.93248 132.728 5.98582C133.018 6.03503 133.304 6.10922 133.582 6.20756C133.862 6.31714 134.13 6.45473 134.383 6.61821C134.667 6.79178 134.943 6.97955 135.208 7.18079C135.329 7.25866 135.44 7.35106 135.538 7.45592C135.629 7.55799 135.679 7.68941 135.679 7.8255C135.673 7.88928 135.662 7.95246 135.646 8.0144C135.626 8.08561 135.595 8.15344 135.555 8.21561L134.639 9.66108C134.583 9.72989 134.513 9.78477 134.432 9.82123C134.367 9.84967 134.297 9.86636 134.226 9.87051C134.105 9.87076 133.986 9.84113 133.879 9.78427C133.631 9.64876 133.409 9.52556 133.206 9.40648C133.014 9.29253 132.816 9.1897 132.612 9.0985C132.419 9.01312 132.219 8.94576 132.014 8.89728C131.788 8.84948 131.559 8.82608 131.328 8.82747C130.719 8.81423 130.128 9.03479 129.677 9.44344C129.2 9.91703 128.884 10.5273 128.773 11.1887V19.5781C128.773 20.0216 128.542 20.2434 128.08 20.2434H126.239C125.773 20.2434 125.542 20.0216 125.542 19.5781L125.513 6.77015Z" fill="white"/>
</svg>
