<svg width="55" height="55" viewBox="0 0 55 55" fill="none" xmlns="http://www.w3.org/2000/svg">
<path fill-rule="evenodd" clip-rule="evenodd" d="M27.473 0.416504C12.523 0.416504 0.416748 12.5498 0.416748 27.4998C0.416748 42.4498 12.523 54.5832 27.473 54.5832C42.4501 54.5832 54.5834 42.4498 54.5834 27.4998C54.5834 12.5498 42.4501 0.416504 27.473 0.416504ZM30.2084 30.2082V13.9582H24.7917V30.2082H30.2084ZM30.2084 41.0415V35.6248H24.7917V41.0415H30.2084ZM5.83342 27.4998C5.83342 39.4707 15.5292 49.1665 27.5001 49.1665C39.4709 49.1665 49.1668 39.4707 49.1668 27.4998C49.1668 15.529 39.4709 5.83317 27.5001 5.83317C15.5292 5.83317 5.83342 15.529 5.83342 27.4998Z" fill="#3FE994"/>
</svg>
