<svg width="87" height="87" viewBox="0 0 87 87" fill="none" xmlns="http://www.w3.org/2000/svg">
<path d="M61.8098 7.6001H21.2598V50.92H61.8098V7.6001Z" fill="url(#paint0_linear)"/>
<path d="M54.3593 69.25H13.2793C12.4836 69.25 11.7206 68.9339 11.158 68.3713C10.5953 67.8087 10.2793 67.0456 10.2793 66.25V18.38C10.2793 17.5844 10.5953 16.8214 11.158 16.2588C11.7206 15.6962 12.4836 15.38 13.2793 15.38H72.8993C73.6949 15.38 74.458 15.6962 75.0206 16.2588C75.5832 16.8214 75.8993 17.5844 75.8993 18.38V47.5" stroke="#24242F" stroke-width="4.3" stroke-miterlimit="10"/>
<path d="M24.1391 43.9901C25.7131 43.9901 26.9891 42.714 26.9891 41.14C26.9891 39.566 25.7131 38.29 24.1391 38.29C22.5651 38.29 21.2891 39.566 21.2891 41.14C21.2891 42.714 22.5651 43.9901 24.1391 43.9901Z" fill="#24242F"/>
<path d="M54.4695 38.9901H32.2695V43.29H54.4695V38.9901Z" fill="#24242F"/>
<path d="M51.6097 55.6901C53.1838 55.6901 54.4598 54.4141 54.4598 52.8401C54.4598 51.2661 53.1838 49.9901 51.6097 49.9901C50.0357 49.9901 48.7598 51.2661 48.7598 52.8401C48.7598 54.4141 50.0357 55.6901 51.6097 55.6901Z" fill="#24242F"/>
<path d="M43.4891 50.6901H21.2891V54.9901H43.4891V50.6901Z" fill="#24242F"/>
<path d="M10.2793 29.25H75.8993" stroke="#24242F" stroke-width="4.3" stroke-miterlimit="10"/>
<path d="M72.2876 74.4048C72.2876 73.4364 71.98 72.6388 71.3647 72.0122C70.7495 71.3742 69.7241 70.8045 68.2886 70.3032C66.853 69.7905 65.7365 69.3177 64.939 68.8848C62.2843 67.4606 60.957 65.3529 60.957 62.5615C60.957 60.6702 61.5324 59.1151 62.6831 57.896C63.8338 56.6769 65.3947 55.9535 67.3657 55.7256V52H70.1001V55.7598C72.0825 56.0446 73.6149 56.8877 74.6973 58.2891C75.7796 59.679 76.3208 61.4906 76.3208 63.7236H72.1851C72.1851 62.2881 71.8604 61.1602 71.2109 60.3398C70.5729 59.5081 69.7013 59.0923 68.5962 59.0923C67.5024 59.0923 66.6479 59.3885 66.0327 59.981C65.4175 60.5734 65.1099 61.4222 65.1099 62.5273C65.1099 63.5186 65.4118 64.3161 66.0156 64.9199C66.6309 65.5124 67.6676 66.0763 69.126 66.6118C70.5843 67.1473 71.7293 67.6429 72.561 68.0986C73.3927 68.5544 74.0934 69.0785 74.6631 69.6709C75.2327 70.252 75.6714 70.9242 75.979 71.6875C76.2866 72.4508 76.4404 73.3452 76.4404 74.3706C76.4404 76.2961 75.848 77.8569 74.6631 79.0532C73.4896 80.2495 71.849 80.9559 69.7412 81.1724V84.5049H67.0239V81.1895C64.7681 80.9388 63.0306 80.1299 61.8115 78.7627C60.6038 77.3955 60 75.584 60 73.3281H64.1528C64.1528 74.7637 64.5117 75.8745 65.2295 76.6606C65.9587 77.4468 66.984 77.8398 68.3057 77.8398C69.6045 77.8398 70.59 77.5265 71.2622 76.8999C71.9458 76.2733 72.2876 75.4416 72.2876 74.4048Z" fill="#24242F"/>
<defs>
<linearGradient id="paint0_linear" x1="41.5348" y1="7.6001" x2="41.5348" y2="50.92" gradientUnits="userSpaceOnUse">
<stop stop-color="#8CF4B9"/>
<stop offset="1" stop-color="#E1F9EA" stop-opacity="0"/>
</linearGradient>
</defs>
</svg>
