<svg width="22" height="22" viewBox="0 0 22 22" fill="none" xmlns="http://www.w3.org/2000/svg">
<path d="M21.2923 11.2415C21.2923 10.5277 21.2344 9.81013 21.1109 9.10794H11.207V13.1513H16.8785C16.6432 14.4554 15.887 15.609 14.7797 16.342V18.9656H18.1633C20.1503 17.1368 21.2923 14.4361 21.2923 11.2415Z" fill="#4285F4"/>
<path d="M11.2073 21.5004C14.0392 21.5004 16.4274 20.5705 18.1674 18.9655L14.7838 16.342C13.8424 16.9824 12.6271 17.3451 11.2111 17.3451C8.47184 17.3451 6.14922 15.497 5.31586 13.0124H1.82422V15.717C3.60669 19.2626 7.23723 21.5004 11.2073 21.5004Z" fill="#34A853"/>
<path d="M5.31175 13.0124C4.87192 11.7084 4.87192 10.2963 5.31175 8.9922V6.28763H1.82397C0.334718 9.25456 0.334718 12.7501 1.82397 15.717L5.31175 13.0124Z" fill="#FBBC04"/>
<path d="M11.2073 4.65562C12.7042 4.63247 14.1511 5.19576 15.2352 6.22975L18.233 3.23195C16.3348 1.44948 13.8154 0.469507 11.2073 0.500372C7.23723 0.500372 3.60669 2.73811 1.82422 6.28762L5.312 8.9922C6.14151 6.50368 8.46798 4.65562 11.2073 4.65562Z" fill="#EA4335"/>
</svg>
