<svg width="58" height="58" viewBox="0 0 58 58" fill="none" xmlns="http://www.w3.org/2000/svg">
<path d="M28.8756 0.546387L28.8756 0.546303L28.8664 0.546456C21.4036 0.670954 14.2885 3.72292 9.05495 9.04452C3.82139 14.3661 0.888481 21.5312 0.888481 28.9951C0.888481 36.4589 3.82139 43.6239 9.05495 48.9455C14.2885 54.2671 21.4036 57.3191 28.8664 57.4436V57.4437L28.8747 57.4437C33.8796 57.4449 38.7958 56.1229 43.1252 53.6119L43.5721 53.3527L43.2985 52.9146L41.5408 50.0991L41.284 49.6877L40.8649 49.9319C37.2281 52.0509 33.0956 53.1705 28.8866 53.1771C22.5553 53.0634 16.5217 50.4688 12.0839 45.9516C7.64503 41.4332 5.15787 35.3524 5.15787 29.0184C5.15787 22.6843 7.64503 16.6036 12.0839 12.0852C16.5218 7.56779 22.5557 4.97315 28.8872 4.85959C32.2798 4.85785 35.6348 5.57151 38.733 6.95402C41.8325 8.33711 44.6054 10.3585 46.8706 12.8862C49.1358 15.4138 50.8423 18.3909 51.8786 21.6229C52.915 24.8549 53.2579 28.2692 52.8849 31.6428L52.8271 32.1657L53.3522 32.1969L56.6266 32.3913L57.1018 32.4195L57.1533 31.9463C57.2614 30.9531 57.3194 29.9551 57.3273 28.9562H57.3274L57.3273 28.9506C57.3022 21.4168 54.2951 14.1995 48.9634 8.87673C43.6318 3.55397 36.4094 0.558902 28.8756 0.546387Z" fill="#24242F" stroke="#24242F"/>
<path d="M31.4901 32.4363L31.487 32.433L31.4871 32.433C31.0074 31.9141 30.163 31.4083 28.8891 30.9442L28.8857 30.9429C27.5718 30.4534 26.5301 29.995 25.7727 29.5662M31.4901 32.4363L26.0179 29.1304M31.4901 32.4363C31.9505 32.9254 32.1924 33.5531 32.1924 34.3606C32.1924 35.2278 31.9233 35.8777 31.4155 36.3633L31.4155 36.3633L31.4125 36.3662C30.9263 36.839 30.1761 37.1152 29.0757 37.1152C27.9872 37.1152 27.2048 36.7827 26.6567 36.1672C26.1109 35.5427 25.8039 34.6239 25.8039 33.3404V32.8404H25.3039H21.532H21.032V33.3404C21.032 35.5646 21.6042 37.4056 22.7957 38.8127L22.7972 38.8145C23.919 40.1268 25.4724 40.9208 27.4116 41.2254V43.9303V44.4303H27.9116H30.3796H30.8796V43.9303V41.2129C32.6769 40.9455 34.1355 40.2541 35.2132 39.1085C36.3919 37.8668 36.9643 36.2573 36.9643 34.3282C36.9643 33.31 36.818 32.399 36.5116 31.6058C36.2099 30.8248 35.7779 30.133 35.216 29.5346C34.6597 28.9315 33.9819 28.4048 33.1889 27.9515C32.4019 27.5016 31.3352 27.0215 29.9997 26.5099C28.7 26.0121 27.8381 25.5095 27.3535 25.0244C26.9125 24.5626 26.6731 23.9405 26.6731 23.1068C26.6731 22.1479 26.9272 21.4874 27.3656 21.0469C27.8081 20.6024 28.4435 20.3522 29.3396 20.3522C30.1893 20.3522 30.8293 20.6744 31.3117 21.3304L31.3117 21.3305L31.3162 21.3365C31.8185 21.9983 32.0993 22.9472 32.0993 24.2403V24.7403H32.5993H36.3556H36.8556V24.2403C36.8556 22.0482 36.3459 20.218 35.2822 18.7927C34.2925 17.4564 32.9218 16.6202 31.2056 16.2748M31.4901 32.4363L31.2056 16.2748M25.7727 29.5662C25.7723 29.5659 25.7719 29.5657 25.7715 29.5655L26.0179 29.1304M25.7727 29.5662C25.773 29.5664 25.7734 29.5665 25.7737 29.5667L26.0179 29.1304M25.7727 29.5662C24.506 28.8571 23.5324 27.9641 22.8773 26.879C22.2214 25.7925 21.9012 24.5402 21.9012 23.1392C21.9012 21.2432 22.4574 19.644 23.5982 18.3832C24.647 17.2241 26.0328 16.5123 27.722 16.2291M26.0179 29.1304C23.6068 27.781 22.4012 25.784 22.4012 23.1392C22.4012 21.3473 22.9238 19.8738 23.9689 18.7187C25.0141 17.5636 26.4318 16.8782 28.222 16.6623M27.722 16.2291V16.6623H28.222M27.722 16.2291V13.1323V12.6323H28.222H30.7056H31.2056V13.1323V16.2748M27.722 16.2291C27.8665 16.2049 28.0132 16.1838 28.1622 16.1659L28.222 16.6623M28.222 16.6623L31.2056 16.2748" fill="#24242F" stroke="#24242F"/>
</svg>
