<svg width="26" height="28" viewBox="0 0 26 28" fill="none" xmlns="http://www.w3.org/2000/svg">
<path d="M3.5 5.83333C3.5 2.61167 6.11167 0 9.33333 0C12.555 0 15.1667 2.61167 15.1667 5.83333C15.1667 9.05499 12.555 11.6667 9.33333 11.6667C6.11167 11.6667 3.5 9.05499 3.5 5.83333ZM9.33333 9.33333C11.2663 9.33333 12.8333 7.76633 12.8333 5.83333C12.8333 3.90034 11.2663 2.33333 9.33333 2.33333C7.40034 2.33333 5.83333 3.90034 5.83333 5.83333C5.83333 7.76633 7.40034 9.33333 9.33333 9.33333Z" fill="#3FE994"/>
<path d="M2.73367 15.567C0.983331 17.3173 0 19.6913 0 22.1667V24.5H2.33333V22.1667C2.33333 20.3102 3.07083 18.5297 4.38359 17.2169C5.69634 15.9042 7.47682 15.1667 9.33333 15.1667C11.1898 15.1667 12.9703 15.9042 14.2831 17.2169L15.933 15.567C14.1827 13.8167 11.8087 12.8333 9.33333 12.8333C6.85798 12.8333 4.48401 13.8167 2.73367 15.567Z" fill="#3FE994"/>
<path d="M20.8129 21.0002L17.8029 17.9785L19.4479 16.3335L25.2812 22.1668L19.4479 28.0002L17.8029 26.3552L20.8129 23.3335H6.99968V21.0002H20.8129Z" fill="#3FE994"/>
</svg>
