<svg width="188" height="47" viewBox="0 0 188 47" fill="none" xmlns="http://www.w3.org/2000/svg">
<path d="M120.719 38.0399C120.068 37.9045 119.873 37.786 119.873 37.4983C119.873 37.1344 120.161 36.9229 120.643 36.9229C120.965 36.9229 121.422 36.999 121.828 37.1175L121.904 37.1429L122.048 36.669L121.972 36.6436C121.599 36.5082 121.083 36.4236 120.651 36.4236C119.831 36.4236 119.306 36.8552 119.306 37.5152C119.306 38.1584 119.746 38.3784 120.465 38.5223L120.575 38.5477C121.1 38.6577 121.591 38.7592 121.591 39.1993C121.591 39.5717 121.269 39.7917 120.736 39.7917C120.321 39.7917 119.822 39.6817 119.365 39.4955L119.281 39.4616L119.137 39.9694L119.204 39.9948C119.678 40.1894 120.245 40.2994 120.719 40.2994C121.591 40.2994 122.132 39.8594 122.132 39.157C122.149 38.4038 121.523 38.2176 120.719 38.0399Z" fill="#24242F"/>
<path d="M122.877 40.2313H125.526V39.7235H123.41V38.6149H125.306V38.1072H123.41V36.9986H125.526V36.4908H122.877V40.2313Z" fill="#24242F"/>
<path d="M129.266 39.605C128.801 39.732 128.378 39.7997 128.056 39.7997C127.159 39.7997 126.575 39.2327 126.575 38.361C126.575 37.4809 127.168 36.9393 128.115 36.9393C128.429 36.9393 128.776 36.9901 129.199 37.1086L129.283 37.134L129.385 36.6262L129.317 36.6008C128.919 36.4823 128.496 36.4146 128.082 36.4146C126.838 36.4146 126.025 37.1763 126.025 38.361C126.025 39.5289 126.838 40.3074 128.048 40.3074C128.462 40.3074 128.936 40.2313 129.393 40.0874L129.461 40.062L129.359 39.5797L129.266 39.605Z" fill="#24242F"/>
<path d="M132.787 38.708C132.787 39.3681 132.364 39.7912 131.704 39.7912C131.052 39.7912 130.629 39.3681 130.629 38.708V36.4823H130.087V38.708C130.087 39.6643 130.739 40.3074 131.704 40.3074C132.668 40.3074 133.32 39.6643 133.32 38.708V36.4823H132.778V38.708H132.787Z" fill="#24242F"/>
<path d="M136.866 37.6756C136.866 36.9055 136.316 36.4485 135.402 36.4485C135.029 36.4485 134.657 36.4654 134.336 36.4824L134.141 36.4908V40.2313H134.682V38.945H135.317C135.393 38.945 135.478 38.945 135.554 38.9365L136.502 40.2313H137.162L136.096 38.8011C136.587 38.598 136.866 38.2003 136.866 37.6756ZM136.333 37.6756C136.333 38.1495 135.986 38.4457 135.436 38.4457H134.682V36.9732C134.928 36.9647 135.148 36.9563 135.41 36.9563C135.749 36.9563 136.333 37.0493 136.333 37.6756Z" fill="#24242F"/>
<path d="M137.594 40.2313H140.251V39.7235H138.135V38.6149H140.031V38.1072H138.135V36.9986H140.251V36.4908H137.594V40.2313Z" fill="#24242F"/>
<path d="M142.257 36.4485C141.876 36.4485 141.402 36.4739 141.089 36.4908L140.97 36.4993V40.2313H141.046C141.266 40.2398 141.825 40.2651 142.299 40.2651C143.441 40.2651 144.211 39.4866 144.211 38.3272C144.211 37.2017 143.424 36.4485 142.257 36.4485ZM141.512 36.9816C141.766 36.9732 142.028 36.9647 142.257 36.9647C143.103 36.9647 143.653 37.5063 143.653 38.3357C143.653 39.1989 143.12 39.7574 142.299 39.7574C142.036 39.7574 141.757 39.7489 141.503 39.7405V36.9816H141.512Z" fill="#24242F"/>
<path d="M145.548 36.9986H146.962V40.2313H147.503V36.9986H148.917V36.4908H145.548V36.9986Z" fill="#24242F"/>
<path d="M151.972 37.6756C151.972 36.9055 151.421 36.4485 150.508 36.4485C150.135 36.4485 149.763 36.4654 149.441 36.4824L149.247 36.4908V40.2313H149.788V38.945H150.423C150.499 38.945 150.584 38.945 150.66 38.9365L151.608 40.2313H152.268L151.201 38.8011C151.692 38.598 151.972 38.2003 151.972 37.6756ZM151.438 37.6756C151.438 38.1495 151.091 38.4457 150.541 38.4457H149.788V36.9732C150.034 36.9647 150.254 36.9563 150.516 36.9563C150.863 36.9563 151.438 37.0493 151.438 37.6756Z" fill="#24242F"/>
<path d="M154.028 36.4654L152.327 40.2313H152.928L153.309 39.3596H155.196L155.585 40.2313H156.186L154.485 36.4654H154.028ZM154.984 38.8519H153.537L154.265 37.2271L154.984 38.8519Z" fill="#24242F"/>
<path d="M159.385 39.3089L157.193 36.4908H156.702V40.2313H157.244V37.4217L159.427 40.2313H159.926V36.4908H159.385V39.3089Z" fill="#24242F"/>
<path d="M162.186 38.0395C161.534 37.9041 161.34 37.7856 161.34 37.4979C161.34 37.134 161.627 36.9224 162.11 36.9224C162.431 36.9224 162.888 36.9986 163.286 37.117L163.362 37.1424L163.506 36.6685L163.43 36.6431C163.058 36.5077 162.541 36.4231 162.11 36.4231C161.289 36.4231 160.764 36.8547 160.764 37.5148C160.764 38.1579 161.204 38.378 161.924 38.5218L162.034 38.5472C162.558 38.6572 163.049 38.7588 163.049 39.1988C163.049 39.5712 162.728 39.7912 162.194 39.7912C161.78 39.7912 161.28 39.6812 160.823 39.495L160.739 39.4612L160.595 39.9689L160.663 39.9943C161.137 40.189 161.704 40.299 162.178 40.299C163.049 40.299 163.591 39.8589 163.591 39.1565C163.616 38.4034 162.998 38.2172 162.186 38.0395Z" fill="#24242F"/>
<path d="M165.546 36.4654L163.845 40.2313H164.445L164.826 39.3596H166.713L167.103 40.2313H167.704L166.003 36.4654H165.546ZM166.493 38.8519H165.046L165.774 37.2271L166.493 38.8519Z" fill="#24242F"/>
<path d="M171.097 39.605C170.632 39.732 170.208 39.7997 169.887 39.7997C168.99 39.7997 168.406 39.2327 168.406 38.361C168.406 37.4809 168.998 36.9393 169.946 36.9393C170.259 36.9393 170.606 36.9901 171.029 37.1086L171.114 37.134L171.216 36.6262L171.148 36.6008C170.75 36.4823 170.327 36.4146 169.912 36.4146C168.668 36.4146 167.856 37.1763 167.856 38.361C167.856 39.5289 168.668 40.3074 169.878 40.3074C170.293 40.3074 170.767 40.2313 171.224 40.0874L171.292 40.062L171.19 39.5797L171.097 39.605Z" fill="#24242F"/>
<path d="M171.52 36.9986H172.933V40.2313H173.475V36.9986H174.888V36.4908H171.52V36.9986Z" fill="#24242F"/>
<path d="M175.76 36.4908H175.218V40.2313H175.76V36.4908Z" fill="#24242F"/>
<path d="M178.409 36.4146C177.232 36.4146 176.445 37.2017 176.445 38.361C176.445 39.5289 177.232 40.3074 178.409 40.3074C179.577 40.3074 180.372 39.5204 180.372 38.361C180.364 37.1932 179.577 36.4146 178.409 36.4146ZM179.814 38.361C179.814 39.2242 179.247 39.7997 178.4 39.7997C177.562 39.7997 176.995 39.2242 176.995 38.361C176.995 37.5063 177.562 36.9309 178.4 36.9309C179.247 36.9309 179.814 37.5063 179.814 38.361Z" fill="#24242F"/>
<path d="M183.723 39.3089L181.523 36.4908H181.041V40.2313H181.574V37.4217L183.757 40.2313H184.256V36.4908H183.723V39.3089Z" fill="#24242F"/>
<path d="M186.516 38.0395C185.864 37.9041 185.67 37.7856 185.67 37.4979C185.67 37.134 185.957 36.9224 186.44 36.9224C186.761 36.9224 187.218 36.9986 187.616 37.117L187.692 37.1424L187.845 36.6685L187.768 36.6431C187.396 36.5077 186.88 36.4231 186.448 36.4231C185.627 36.4231 185.103 36.8547 185.103 37.5148C185.103 38.1579 185.543 38.378 186.262 38.5218L186.372 38.5472C186.897 38.6572 187.388 38.7588 187.388 39.1988C187.388 39.5712 187.066 39.7912 186.533 39.7912C186.118 39.7912 185.619 39.6812 185.162 39.495L185.077 39.4612L184.933 39.9689L185.001 39.9943C185.475 40.189 186.042 40.299 186.516 40.299C187.388 40.299 187.929 39.8589 187.929 39.1565C187.946 38.4034 187.328 38.2172 186.516 38.0395Z" fill="#24242F"/>
<path d="M14.4965 41.9576C14.1749 41.9576 13.8702 42.0338 13.5994 42.1692C6.82933 38.2764 2.53032 30.9562 2.53032 23.086C2.53032 15.2073 6.82933 7.88716 13.5994 4.00282C13.8702 4.13822 14.1749 4.21438 14.5049 4.21438C15.6643 4.21438 16.6121 3.27503 16.6121 2.10719C16.6121 0.947813 15.6728 0 14.5049 0C13.464 0 12.6008 0.761635 12.4316 1.76022C4.82369 6.07616 0 14.268 0 23.086C0 31.8956 4.82369 40.0874 12.4231 44.4033C12.5839 45.4019 13.4471 46.172 14.4965 46.172C15.6558 46.172 16.6036 45.2327 16.6036 44.0648C16.6036 42.897 15.6643 41.9576 14.4965 41.9576Z" fill="#3FE994"/>
<path d="M36.1692 29.1791C34.8998 31.574 32.8688 33.5458 30.44 34.756C28.6629 35.653 26.6572 36.1269 24.6347 36.1269C22.7983 36.1269 21.0296 35.7545 19.3709 35.0183C14.6572 32.9365 11.6022 28.2567 11.6022 23.0945C11.6022 17.9323 14.6488 13.2525 19.3709 11.1706C21.0296 10.4344 22.8067 10.062 24.6347 10.062C26.6572 10.062 28.6629 10.536 30.4485 11.433C32.9026 12.6516 34.9506 14.6657 36.22 17.1029C36.6177 17.8646 37.3878 18.3385 38.2341 18.3385H48.6008L48.1777 16.7475C46.4767 10.3752 42.2877 5.0014 36.5754 1.76869C36.4062 0.761635 35.543 0 34.5021 0C33.3427 0 32.3949 0.93935 32.3949 2.10719C32.3949 3.26657 33.3342 4.21438 34.5021 4.21438C34.8237 4.21438 35.1283 4.13822 35.4076 4.00282C40.0112 6.63469 43.5063 10.8152 45.2496 15.7997H38.4033C36.8885 12.9478 34.4682 10.5867 31.5909 9.15655C29.7969 8.25105 27.8081 7.70944 25.7771 7.56558V1.26093C25.7771 0.566995 25.2101 0 24.5162 0C23.8223 0 23.2553 0.566995 23.2553 1.26093V7.59096C21.5627 7.74329 19.921 8.15796 18.3639 8.84343C12.7193 11.3314 9.08038 16.9252 9.08038 23.086C9.08038 29.2468 12.7193 34.8406 18.3469 37.3201C19.9041 38.0141 21.5458 38.4287 23.2468 38.5726V44.8265C23.2468 45.5204 23.8138 46.0874 24.5077 46.0874C25.2101 46.0874 25.7687 45.5204 25.7687 44.8265V38.598C27.7912 38.4457 29.7799 37.9125 31.574 37.007C34.4259 35.5938 36.8208 33.2835 38.3356 30.4823H45.1988C43.4386 35.416 39.9605 39.5543 35.3906 42.1607C35.1198 42.0338 34.8152 41.9492 34.4936 41.9492C33.3342 41.9492 32.3864 42.8885 32.3864 44.0564C32.3864 45.2157 33.3258 46.1636 34.4936 46.1636C35.543 46.1636 36.3977 45.4019 36.5669 44.3949C42.2369 41.1875 46.4174 35.8561 48.1353 29.543L48.5669 27.9436H38.1748C37.337 27.952 36.567 28.4259 36.1692 29.1791Z" fill="#3FE994"/>
<path d="M67.3709 14.1326C68.4033 13.4471 69.6812 13.1001 71.2298 13.1001C72.9139 13.1001 74.2933 13.5063 75.3596 14.3188C76.4259 15.1312 77.1875 16.2821 77.636 17.7546L82.2566 16.4767C81.478 14.1157 80.1494 12.2454 78.2538 10.8576C76.3582 9.47814 74.014 8.78421 71.2298 8.78421C68.801 8.78421 66.7023 9.30889 64.9421 10.3667C63.1819 11.4245 61.8279 12.9055 60.8716 14.8011C59.9238 16.7052 59.4499 18.914 59.4499 21.4274C59.4499 23.9492 59.9238 26.158 60.8716 28.0536C61.8194 29.9577 63.1734 31.4302 64.9421 32.488C66.7023 33.5458 68.801 34.0705 71.2298 34.0705C74.0225 34.0705 76.3582 33.3766 78.2538 31.9972C80.1494 30.6178 81.4865 28.7391 82.2566 26.378L77.636 25.1001C77.1875 26.5642 76.4259 27.7066 75.3596 28.5275C74.2933 29.3484 72.9139 29.763 71.2298 29.763C69.6896 29.763 68.4033 29.4161 67.3709 28.7306C66.3384 28.0451 65.5683 27.0804 65.0521 25.8279C64.5359 24.5754 64.2735 23.1114 64.2735 21.4274C64.2735 19.7433 64.5359 18.2708 65.0521 17.0268C65.5683 15.7828 66.3384 14.8181 67.3709 14.1326Z" fill="white"/>
<path d="M96.99 15.9267L92.3779 27.952L87.7319 15.9267L83.5768 17.0522L90.2453 33.4612L87.3426 41.4499H91.4639L101.018 17.0014L96.99 15.9267Z" fill="white"/>
<path d="M114.211 15.9266V16.9252C114.11 16.8406 114.017 16.7475 113.898 16.6629C112.747 15.842 111.343 15.4443 109.659 15.4443C107.974 15.4443 106.502 15.8505 105.25 16.6544C103.989 17.4499 103.024 18.567 102.321 19.9633C101.636 21.3681 101.289 22.9591 101.289 24.7701C101.289 26.5303 101.628 28.1213 102.313 29.5261C102.99 30.9309 103.938 32.0479 105.165 32.8603C106.392 33.6727 107.805 34.079 109.43 34.079C111.106 34.079 112.502 33.6897 113.653 32.9619V34.739C113.67 35.3907 113.509 35.9407 113.154 36.3808C112.798 36.8124 112.324 37.1509 111.732 37.3794C111.148 37.5994 110.522 37.7094 109.853 37.7094C109.235 37.7094 108.66 37.574 108.135 37.3032C107.864 37.1593 107.627 36.9816 107.407 36.7785L105.749 40.9167C106.121 41.1198 106.527 41.306 106.95 41.4499C107.864 41.7715 108.812 41.9323 109.819 41.9323C111.114 41.9323 112.324 41.763 113.433 41.416C114.55 41.0775 115.489 40.5528 116.251 39.8589C117.021 39.165 117.546 38.2679 117.833 37.2017C117.935 36.8124 118.003 36.4316 118.037 36.0423C118.07 35.653 118.096 35.2468 118.096 34.8067V15.9266H114.211ZM113.822 27.5797C113.56 28.3921 113.137 29.0098 112.544 29.4584C111.952 29.8984 111.156 30.1269 110.166 30.1269C109.21 30.1269 108.415 29.89 107.805 29.416C107.196 28.9337 106.739 28.2905 106.451 27.4696C106.163 26.6572 106.011 25.7602 106.011 24.7701C106.011 23.78 106.163 22.8914 106.468 22.0705C106.773 21.2581 107.238 20.6149 107.881 20.1241C108.525 19.6417 109.337 19.3963 110.327 19.3963C111.258 19.3963 112.003 19.6248 112.578 20.0649C113.154 20.5134 113.568 21.1396 113.831 21.9436C114.093 22.756 114.228 23.6953 114.228 24.7616C114.211 25.8279 114.084 26.7673 113.822 27.5797Z" fill="white"/>
<path d="M133.202 24.897C133.202 25.9887 133.075 26.8688 132.829 27.5374C132.584 28.2059 132.271 28.7137 131.89 29.0606C131.509 29.4076 131.094 29.6361 130.663 29.7546C130.223 29.8731 129.816 29.9323 129.436 29.9323C128.488 29.9323 127.752 29.7207 127.235 29.2976C126.719 28.8745 126.347 28.3413 126.118 27.7151C125.89 27.0804 125.754 26.4542 125.712 25.8279C125.67 25.2017 125.644 24.6855 125.644 24.2793V15.9351H121.134V25.8448C121.134 26.141 121.159 26.6065 121.202 27.2496C121.244 27.8928 121.371 28.6037 121.574 29.3822C121.777 30.1608 122.124 30.914 122.615 31.6333C123.097 32.3526 123.774 32.945 124.654 33.4189C125.526 33.8843 126.651 34.1213 128.039 34.1213C129.774 34.1213 131.213 33.7489 132.347 32.9958C132.88 32.6403 133.354 32.2341 133.76 31.7687V33.5966H137.687V15.9267H133.202V24.897Z" fill="white"/>
<path d="M155.551 18.6432C154.934 17.4668 154.011 16.6375 152.801 16.1551C151.591 15.6728 150.203 15.4358 148.646 15.4358C146.522 15.4358 144.838 15.8928 143.611 16.8068C142.375 17.7207 141.537 18.914 141.089 20.3695L145.108 21.6474C145.396 20.8434 145.887 20.2764 146.598 19.9633C147.309 19.6502 147.986 19.4894 148.646 19.4894C149.822 19.4894 150.66 19.7348 151.168 20.2257C151.557 20.6065 151.794 21.1735 151.879 21.8928C151.134 22.0028 150.414 22.1128 149.746 22.2059C148.603 22.3752 147.58 22.5529 146.674 22.7391C145.769 22.9252 144.99 23.1368 144.338 23.3738C143.391 23.7207 142.637 24.1523 142.07 24.677C141.512 25.1932 141.097 25.7941 140.852 26.4711C140.598 27.1481 140.479 27.8928 140.479 28.7137C140.479 29.6953 140.708 30.5924 141.156 31.4048C141.605 32.2172 142.273 32.8688 143.154 33.3512C144.034 33.8335 145.1 34.079 146.369 34.079C147.893 34.079 149.154 33.8166 150.152 33.2835C150.939 32.8688 151.684 32.2341 152.386 31.4048V33.5881H156.279V22.7983C156.279 21.9943 156.245 21.2581 156.178 20.6065C156.101 19.9549 155.898 19.3032 155.551 18.6432ZM151.396 28.2313C151.278 28.4852 151.049 28.7898 150.719 29.1622C150.389 29.5345 149.941 29.8646 149.374 30.1523C148.815 30.44 148.121 30.5839 147.309 30.5839C146.792 30.5839 146.352 30.5077 145.98 30.3554C145.608 30.2031 145.32 29.9831 145.117 29.6953C144.914 29.4076 144.812 29.0606 144.812 28.6544C144.812 28.3582 144.871 28.0959 144.998 27.8505C145.125 27.6135 145.32 27.3935 145.591 27.1904C145.853 26.9873 146.209 26.8011 146.649 26.6234C147.029 26.4795 147.469 26.3526 147.977 26.2341C148.477 26.1156 149.137 25.9802 149.957 25.8364C150.482 25.7433 151.117 25.6333 151.845 25.5063C151.836 25.8194 151.819 26.158 151.802 26.5557C151.752 27.1904 151.625 27.7489 151.396 28.2313Z" fill="white"/>
<path d="M168.474 15.8928C167.941 15.9351 167.424 16.0198 166.917 16.1721C166.417 16.316 165.952 16.5275 165.529 16.7814C164.97 17.1114 164.505 17.5261 164.124 18.0254C163.946 18.2624 163.777 18.5162 163.633 18.7786V15.9267H159.706V33.5966H164.192V24.567C164.192 23.89 164.285 23.2807 164.471 22.7475C164.657 22.2059 164.928 21.7405 165.292 21.3427C165.656 20.945 166.096 20.6234 166.62 20.3865C167.145 20.1326 167.729 19.9887 168.381 19.9379C169.032 19.8872 169.599 19.9379 170.09 20.0903V15.9351C169.54 15.8674 169.007 15.8505 168.474 15.8928Z" fill="white"/>
<path d="M183.419 10.0451V16.5275C182.319 15.8166 180.99 15.4443 179.424 15.4443C177.732 15.4443 176.259 15.8505 175.007 16.6544C173.754 17.4584 172.781 18.567 172.087 19.9633C171.393 21.3681 171.046 22.9675 171.046 24.7616C171.046 26.5303 171.385 28.1128 172.07 29.5176C172.756 30.9224 173.704 32.0395 174.922 32.8519C176.141 33.6728 177.563 34.079 179.187 34.079C180.939 34.079 182.412 33.6728 183.588 32.8519C183.723 32.7588 183.842 32.6488 183.96 32.5472V33.5881H187.887V11.086L183.419 10.0451ZM183.579 27.5797C183.317 28.3836 182.894 29.0099 182.293 29.4584C181.701 29.9069 180.905 30.1269 179.915 30.1269C178.959 30.1269 178.172 29.89 177.563 29.4076C176.953 28.9252 176.496 28.2821 176.2 27.4697C175.904 26.6572 175.76 25.7517 175.76 24.7616C175.76 23.78 175.912 22.8829 176.217 22.0705C176.522 21.2581 176.996 20.6065 177.63 20.1241C178.265 19.6417 179.086 19.3963 180.076 19.3963C181.007 19.3963 181.752 19.6164 182.327 20.0649C182.902 20.5134 183.317 21.1396 183.579 21.9436C183.842 22.7475 183.969 23.6869 183.969 24.7532C183.977 25.8279 183.842 26.7673 183.579 27.5797Z" fill="white"/>
</svg>
