<svg width="188" height="47" viewBox="0 0 188 47" fill="none" xmlns="http://www.w3.org/2000/svg">
<path d="M120.719 38.0397C120.068 37.9043 119.873 37.7858 119.873 37.4981C119.873 37.1342 120.161 36.9226 120.643 36.9226C120.965 36.9226 121.422 36.9988 121.828 37.1173L121.904 37.1427L122.048 36.6688L121.972 36.6434C121.599 36.508 121.083 36.4233 120.652 36.4233C119.831 36.4233 119.306 36.8549 119.306 37.515C119.306 38.1582 119.746 38.3782 120.465 38.5221L120.575 38.5475C121.1 38.6575 121.591 38.759 121.591 39.1991C121.591 39.5714 121.269 39.7915 120.736 39.7915C120.321 39.7915 119.822 39.6814 119.365 39.4953L119.281 39.4614L119.137 39.9692L119.204 39.9946C119.678 40.1892 120.245 40.2992 120.719 40.2992C121.591 40.2992 122.132 39.8592 122.132 39.1568C122.149 38.4036 121.523 38.2174 120.719 38.0397Z" fill="#24242F"/>
<path d="M122.877 40.2312H125.526V39.7234H123.41V38.6148H125.306V38.1071H123.41V36.9985H125.526V36.4907H122.877V40.2312Z" fill="#24242F"/>
<path d="M129.266 39.605C128.801 39.7319 128.378 39.7996 128.056 39.7996C127.159 39.7996 126.575 39.2326 126.575 38.361C126.575 37.4808 127.168 36.9392 128.116 36.9392C128.429 36.9392 128.776 36.99 129.199 37.1085L129.283 37.1339L129.385 36.6261L129.317 36.6007C128.919 36.4823 128.496 36.4146 128.082 36.4146C126.838 36.4146 126.025 37.1762 126.025 38.361C126.025 39.5288 126.838 40.3074 128.048 40.3074C128.463 40.3074 128.936 40.2312 129.393 40.0873L129.461 40.0619L129.36 39.5796L129.266 39.605Z" fill="#24242F"/>
<path d="M132.787 38.7081C132.787 39.3682 132.364 39.7913 131.704 39.7913C131.052 39.7913 130.629 39.3682 130.629 38.7081V36.4824H130.087V38.7081C130.087 39.6644 130.739 40.3075 131.704 40.3075C132.668 40.3075 133.32 39.6644 133.32 38.7081V36.4824H132.778V38.7081H132.787Z" fill="#24242F"/>
<path d="M136.866 37.6753C136.866 36.9052 136.316 36.4482 135.402 36.4482C135.029 36.4482 134.657 36.4652 134.336 36.4821L134.141 36.4906V40.231H134.682V38.9447H135.317C135.393 38.9447 135.478 38.9447 135.554 38.9362L136.502 40.231H137.162L136.096 38.8008C136.587 38.5977 136.866 38.2 136.866 37.6753ZM136.333 37.6753C136.333 38.1492 135.986 38.4454 135.436 38.4454H134.682V36.9729C134.928 36.9645 135.148 36.956 135.41 36.956C135.749 36.956 136.333 37.0491 136.333 37.6753Z" fill="#24242F"/>
<path d="M137.594 40.2312H140.251V39.7234H138.135V38.6148H140.031V38.1071H138.135V36.9985H140.251V36.4907H137.594V40.2312Z" fill="#24242F"/>
<path d="M142.257 36.4482C141.876 36.4482 141.402 36.4736 141.089 36.4906L140.97 36.499V40.231H141.046C141.266 40.2395 141.825 40.2649 142.299 40.2649C143.441 40.2649 144.211 39.4863 144.211 38.3269C144.211 37.2014 143.424 36.4482 142.257 36.4482ZM141.512 36.9814C141.766 36.9729 142.028 36.9645 142.257 36.9645C143.103 36.9645 143.653 37.5061 143.653 38.3354C143.653 39.1986 143.12 39.7571 142.299 39.7571C142.036 39.7571 141.757 39.7487 141.503 39.7402V36.9814H141.512Z" fill="#24242F"/>
<path d="M145.548 36.9985H146.962V40.2312H147.503V36.9985H148.917V36.4907H145.548V36.9985Z" fill="#24242F"/>
<path d="M151.972 37.6753C151.972 36.9052 151.422 36.4482 150.508 36.4482C150.135 36.4482 149.763 36.4652 149.441 36.4821L149.247 36.4906V40.231H149.788V38.9447H150.423C150.499 38.9447 150.584 38.9447 150.66 38.9362L151.608 40.231H152.268L151.202 38.8008C151.692 38.5977 151.972 38.2 151.972 37.6753ZM151.439 37.6753C151.439 38.1492 151.092 38.4454 150.541 38.4454H149.788V36.9729C150.034 36.9645 150.254 36.956 150.516 36.956C150.863 36.956 151.439 37.0491 151.439 37.6753Z" fill="#24242F"/>
<path d="M154.028 36.4653L152.327 40.2312H152.928L153.309 39.3595H155.196L155.585 40.2312H156.186L154.485 36.4653H154.028ZM154.984 38.8518H153.537L154.265 37.227L154.984 38.8518Z" fill="#24242F"/>
<path d="M159.385 39.3088L157.193 36.4907H156.702V40.2312H157.244V37.4216L159.427 40.2312H159.927V36.4907H159.385V39.3088Z" fill="#24242F"/>
<path d="M162.186 38.0392C161.534 37.9038 161.34 37.7853 161.34 37.4976C161.34 37.1337 161.628 36.9221 162.11 36.9221C162.431 36.9221 162.888 36.9983 163.286 37.1168L163.362 37.1422L163.506 36.6683L163.43 36.6429C163.058 36.5075 162.541 36.4229 162.11 36.4229C161.289 36.4229 160.764 36.8544 160.764 37.5145C160.764 38.1577 161.204 38.3777 161.924 38.5216L162.034 38.547C162.558 38.657 163.049 38.7585 163.049 39.1986C163.049 39.5709 162.728 39.791 162.195 39.791C161.78 39.791 161.281 39.681 160.824 39.4948L160.739 39.4609L160.595 39.9687L160.663 39.9941C161.137 40.1887 161.704 40.2987 162.178 40.2987C163.049 40.2987 163.591 39.8587 163.591 39.1563C163.616 38.4031 162.998 38.2169 162.186 38.0392Z" fill="#24242F"/>
<path d="M165.546 36.4653L163.845 40.2312H164.446L164.826 39.3595H166.714L167.103 40.2312H167.704L166.003 36.4653H165.546ZM166.494 38.8518H165.046L165.774 37.227L166.494 38.8518Z" fill="#24242F"/>
<path d="M171.097 39.605C170.632 39.7319 170.209 39.7996 169.887 39.7996C168.99 39.7996 168.406 39.2326 168.406 38.361C168.406 37.4808 168.998 36.9392 169.946 36.9392C170.259 36.9392 170.606 36.99 171.029 37.1085L171.114 37.1339L171.216 36.6261L171.148 36.6007C170.75 36.4823 170.327 36.4146 169.912 36.4146C168.668 36.4146 167.856 37.1762 167.856 38.361C167.856 39.5288 168.668 40.3074 169.879 40.3074C170.293 40.3074 170.767 40.2312 171.224 40.0873L171.292 40.0619L171.19 39.5796L171.097 39.605Z" fill="#24242F"/>
<path d="M171.52 36.9985H172.934V40.2312H173.475V36.9985H174.888V36.4907H171.52V36.9985Z" fill="#24242F"/>
<path d="M175.76 36.4907H175.218V40.2312H175.76V36.4907Z" fill="#24242F"/>
<path d="M178.409 36.4146C177.233 36.4146 176.446 37.2016 176.446 38.361C176.446 39.5288 177.233 40.3074 178.409 40.3074C179.577 40.3074 180.372 39.5203 180.372 38.361C180.364 37.1931 179.577 36.4146 178.409 36.4146ZM179.814 38.361C179.814 39.2241 179.247 39.7996 178.4 39.7996C177.563 39.7996 176.996 39.2241 176.996 38.361C176.996 37.5062 177.563 36.9308 178.4 36.9308C179.247 36.9308 179.814 37.5062 179.814 38.361Z" fill="#24242F"/>
<path d="M183.723 39.3088L181.523 36.4907H181.041V40.2312H181.574V37.4216L183.757 40.2312H184.256V36.4907H183.723V39.3088Z" fill="#24242F"/>
<path d="M186.516 38.0392C185.864 37.9038 185.67 37.7853 185.67 37.4976C185.67 37.1337 185.957 36.9221 186.44 36.9221C186.761 36.9221 187.218 36.9983 187.616 37.1168L187.692 37.1422L187.845 36.6683L187.768 36.6429C187.396 36.5075 186.88 36.4229 186.448 36.4229C185.627 36.4229 185.103 36.8544 185.103 37.5145C185.103 38.1577 185.543 38.3777 186.262 38.5216L186.372 38.547C186.897 38.657 187.388 38.7585 187.388 39.1986C187.388 39.5709 187.066 39.791 186.533 39.791C186.118 39.791 185.619 39.681 185.162 39.4948L185.077 39.4609L184.933 39.9687L185.001 39.9941C185.475 40.1887 186.042 40.2987 186.516 40.2987C187.388 40.2987 187.929 39.8587 187.929 39.1563C187.946 38.4031 187.328 38.2169 186.516 38.0392Z" fill="#24242F"/>
<path d="M14.4965 41.9576C14.1749 41.9576 13.8702 42.0338 13.5994 42.1692C6.82933 38.2764 2.53032 30.9562 2.53032 23.086C2.53032 15.2073 6.82933 7.88716 13.5994 4.00282C13.8702 4.13822 14.1749 4.21438 14.5049 4.21438C15.6643 4.21438 16.6121 3.27503 16.6121 2.10719C16.6121 0.947813 15.6728 0 14.5049 0C13.464 0 12.6008 0.761635 12.4316 1.76022C4.82369 6.07616 0 14.268 0 23.086C0 31.8956 4.82369 40.0874 12.4231 44.4033C12.5839 45.4019 13.4471 46.172 14.4965 46.172C15.6558 46.172 16.6036 45.2327 16.6036 44.0648C16.6036 42.897 15.6643 41.9576 14.4965 41.9576Z" fill="white"/>
<path d="M36.1691 29.1791C34.8998 31.574 32.8687 33.5458 30.44 34.756C28.6628 35.653 26.6572 36.1269 24.6346 36.1269C22.7982 36.1269 21.0295 35.7545 19.3709 35.0183C14.6572 32.9365 11.6022 28.2567 11.6022 23.0945C11.6022 17.9323 14.6487 13.2525 19.3709 11.1706C21.0295 10.4344 22.8067 10.062 24.6346 10.062C26.6572 10.062 28.6628 10.536 30.4484 11.433C32.9026 12.6516 34.9505 14.6657 36.2199 17.1029C36.6177 17.8646 37.3878 18.3385 38.234 18.3385H48.6007L48.1776 16.7475C46.4766 10.3752 42.2876 5.0014 36.5754 1.76869C36.4061 0.761635 35.5429 0 34.502 0C33.3426 0 32.3948 0.93935 32.3948 2.10719C32.3948 3.26657 33.3342 4.21438 34.502 4.21438C34.8236 4.21438 35.1282 4.13822 35.4075 4.00282C40.0112 6.63469 43.5062 10.8152 45.2495 15.7997H38.4033C36.8885 12.9478 34.4682 10.5867 31.5909 9.15655C29.7968 8.25105 27.8081 7.70944 25.7771 7.56558V1.26093C25.7771 0.566995 25.2101 0 24.5161 0C23.8222 0 23.2552 0.566995 23.2552 1.26093V7.59096C21.5627 7.74329 19.9209 8.15796 18.3638 8.84343C12.7192 11.3314 9.08032 16.9252 9.08032 23.086C9.08032 29.2468 12.7192 34.8406 18.3469 37.3201C19.904 38.0141 21.5458 38.4287 23.2467 38.5726V44.8265C23.2467 45.5204 23.8137 46.0874 24.5077 46.0874C25.2101 46.0874 25.7686 45.5204 25.7686 44.8265V38.598C27.7912 38.4457 29.7799 37.9125 31.5739 37.007C34.4258 35.5938 36.8208 33.2835 38.3356 30.4823H45.1988C43.4385 35.416 39.9604 39.5543 35.3906 42.1607C35.1198 42.0338 34.8151 41.9492 34.4935 41.9492C33.3342 41.9492 32.3864 42.8885 32.3864 44.0564C32.3864 45.2157 33.3257 46.1636 34.4935 46.1636C35.5429 46.1636 36.3976 45.4019 36.5669 44.3949C42.2368 41.1875 46.4174 35.8561 48.1353 29.543L48.5669 27.9436H38.1748C37.337 27.952 36.5669 28.4259 36.1691 29.1791Z" fill="white"/>
<path d="M67.3708 14.1326C68.4033 13.4471 69.6811 13.1001 71.2298 13.1001C72.9138 13.1001 74.2933 13.5063 75.3595 14.3187C76.4258 15.1311 77.1875 16.2821 77.636 17.7545L82.2566 16.4767C81.478 14.1156 80.1494 12.2454 78.2538 10.8575C76.3581 9.47811 74.014 8.78418 71.2298 8.78418C68.801 8.78418 66.7023 9.30886 64.9421 10.3667C63.1818 11.4245 61.8278 12.9055 60.8715 14.8011C59.9237 16.7052 59.4498 18.9139 59.4498 21.4273C59.4498 23.9492 59.9237 26.1579 60.8715 28.0536C61.8194 29.9576 63.1734 31.4301 64.9421 32.488C66.7023 33.5458 68.801 34.0705 71.2298 34.0705C74.0224 34.0705 76.3581 33.3765 78.2538 31.9971C80.1494 30.6177 81.4865 28.739 82.2566 26.378L77.636 25.1001C77.1875 26.5641 76.4258 27.7066 75.3595 28.5275C74.2933 29.3483 72.9138 29.763 71.2298 29.763C69.6896 29.763 68.4033 29.416 67.3708 28.7306C66.3384 28.0451 65.5683 27.0803 65.0521 25.8279C64.5359 24.5754 64.2735 23.1114 64.2735 21.4273C64.2735 19.7433 64.5359 18.2708 65.0521 17.0268C65.5683 15.7828 66.3384 14.818 67.3708 14.1326Z" fill="#24242F"/>
<path d="M96.99 15.9268L92.3779 27.9521L87.7319 15.9268L83.5768 17.0523L90.2453 33.4613L87.3426 41.45H91.4639L101.018 17.0015L96.99 15.9268Z" fill="#24242F"/>
<path d="M114.211 15.9267V16.9253C114.11 16.8407 114.017 16.7476 113.898 16.663C112.747 15.8421 111.343 15.4443 109.658 15.4443C107.974 15.4443 106.502 15.8505 105.249 16.6545C103.989 17.45 103.024 18.567 102.321 19.9634C101.636 21.3682 101.289 22.9591 101.289 24.7701C101.289 26.5304 101.627 28.1213 102.313 29.5261C102.99 30.9309 103.938 32.048 105.165 32.8604C106.392 33.6728 107.805 34.079 109.43 34.079C111.106 34.079 112.502 33.6897 113.653 32.9619V34.7391C113.67 35.3907 113.509 35.9408 113.154 36.3808C112.798 36.8124 112.324 37.1509 111.732 37.3794C111.148 37.5995 110.522 37.7095 109.853 37.7095C109.235 37.7095 108.66 37.5741 108.135 37.3033C107.864 37.1594 107.627 36.9817 107.407 36.7786L105.749 40.9168C106.121 41.1199 106.527 41.3061 106.95 41.4499C107.864 41.7715 108.812 41.9323 109.819 41.9323C111.114 41.9323 112.324 41.7631 113.433 41.4161C114.55 41.0776 115.489 40.5529 116.251 39.859C117.021 39.165 117.546 38.268 117.833 37.2017C117.935 36.8124 118.003 36.4316 118.036 36.0423C118.07 35.6531 118.096 35.2469 118.096 34.8068V15.9267H114.211ZM113.822 27.5797C113.56 28.3921 113.137 29.0099 112.544 29.4584C111.952 29.8985 111.156 30.127 110.166 30.127C109.21 30.127 108.414 29.89 107.805 29.4161C107.196 28.9337 106.739 28.2906 106.451 27.4697C106.163 26.6573 106.011 25.7603 106.011 24.7701C106.011 23.78 106.163 22.8914 106.468 22.0706C106.773 21.2582 107.238 20.615 107.881 20.1242C108.524 19.6418 109.337 19.3964 110.327 19.3964C111.258 19.3964 112.003 19.6249 112.578 20.0649C113.154 20.5134 113.568 21.1397 113.831 21.9436C114.093 22.756 114.228 23.6954 114.228 24.7617C114.211 25.828 114.084 26.7673 113.822 27.5797Z" fill="#24242F"/>
<path d="M133.201 24.8971C133.201 25.9888 133.075 26.8689 132.829 27.5375C132.584 28.206 132.271 28.7138 131.89 29.0607C131.509 29.4077 131.094 29.6362 130.663 29.7547C130.223 29.8731 129.816 29.9324 129.436 29.9324C128.488 29.9324 127.752 29.7208 127.235 29.2977C126.719 28.8746 126.347 28.3414 126.118 27.7152C125.89 27.0805 125.754 26.4542 125.712 25.828C125.67 25.2018 125.644 24.6856 125.644 24.2794V15.9352H121.134V25.8449C121.134 26.1411 121.159 26.6066 121.201 27.2497C121.244 27.8929 121.371 28.6038 121.574 29.3823C121.777 30.1609 122.124 30.914 122.615 31.6334C123.097 32.3527 123.774 32.9451 124.654 33.419C125.526 33.8844 126.651 34.1214 128.039 34.1214C129.774 34.1214 131.213 33.749 132.347 32.9958C132.88 32.6404 133.354 32.2342 133.76 31.7688V33.5967H137.687V15.9268H133.201V24.8971Z" fill="#24242F"/>
<path d="M155.551 18.6429C154.934 17.4666 154.011 16.6372 152.801 16.1549C151.591 15.6725 150.203 15.4355 148.646 15.4355C146.522 15.4355 144.838 15.8925 143.611 16.8065C142.375 17.7205 141.537 18.9137 141.089 20.3693L145.108 21.6471C145.396 20.8432 145.887 20.2762 146.598 19.963C147.309 19.6499 147.986 19.4891 148.646 19.4891C149.822 19.4891 150.66 19.7346 151.168 20.2254C151.557 20.6062 151.794 21.1732 151.879 21.8925C151.134 22.0025 150.414 22.1125 149.746 22.2056C148.603 22.3749 147.58 22.5526 146.674 22.7388C145.769 22.925 144.99 23.1365 144.338 23.3735C143.391 23.7204 142.637 24.152 142.07 24.6767C141.512 25.1929 141.097 25.7938 140.852 26.4708C140.598 27.1478 140.479 27.8925 140.479 28.7134C140.479 29.6951 140.708 30.5921 141.156 31.4045C141.605 32.2169 142.273 32.8685 143.154 33.3509C144.034 33.8333 145.1 34.0787 146.369 34.0787C147.893 34.0787 149.154 33.8163 150.152 33.2832C150.939 32.8685 151.684 32.2338 152.386 31.4045V33.5879H156.279V22.798C156.279 21.9941 156.245 21.2578 156.178 20.6062C156.101 19.9546 155.898 19.303 155.551 18.6429ZM151.396 28.231C151.278 28.4849 151.049 28.7895 150.719 29.1619C150.389 29.5343 149.941 29.8643 149.374 30.152C148.815 30.4398 148.121 30.5836 147.309 30.5836C146.792 30.5836 146.352 30.5075 145.98 30.3551C145.608 30.2028 145.32 29.9828 145.117 29.6951C144.914 29.4073 144.812 29.0604 144.812 28.6541C144.812 28.358 144.871 28.0956 144.998 27.8502C145.125 27.6132 145.32 27.3932 145.591 27.1901C145.853 26.987 146.209 26.8008 146.649 26.6231C147.029 26.4793 147.469 26.3523 147.977 26.2338C148.477 26.1154 149.137 25.98 149.957 25.8361C150.482 25.743 151.117 25.633 151.845 25.5061C151.836 25.8192 151.819 26.1577 151.802 26.5554C151.752 27.1901 151.625 27.7486 151.396 28.231Z" fill="#24242F"/>
<path d="M168.474 15.8927C167.941 15.935 167.424 16.0196 166.917 16.172C166.417 16.3158 165.952 16.5274 165.529 16.7813C164.97 17.1113 164.505 17.526 164.124 18.0253C163.946 18.2622 163.777 18.5161 163.633 18.7784V15.9265H159.706V33.5965H164.192V24.5669C164.192 23.8899 164.285 23.2806 164.471 22.7474C164.657 22.2058 164.928 21.7404 165.292 21.3426C165.656 20.9449 166.096 20.6233 166.62 20.3863C167.145 20.1325 167.729 19.9886 168.381 19.9378C169.032 19.8871 169.599 19.9378 170.09 20.0902V15.935C169.54 15.8673 169.007 15.8504 168.474 15.8927Z" fill="#24242F"/>
<path d="M183.419 10.0449V16.5273C182.318 15.8164 180.99 15.4441 179.424 15.4441C177.732 15.4441 176.259 15.8503 175.007 16.6542C173.754 17.4582 172.781 18.5668 172.087 19.9631C171.393 21.3679 171.046 22.9673 171.046 24.7614C171.046 26.5301 171.385 28.1126 172.07 29.5174C172.756 30.9222 173.704 32.0393 174.922 32.8517C176.141 33.6725 177.562 34.0787 179.187 34.0787C180.939 34.0787 182.412 33.6725 183.588 32.8517C183.723 32.7586 183.842 32.6486 183.96 32.547V33.5879H187.887V11.0858L183.419 10.0449ZM183.579 27.5795C183.317 28.3834 182.894 29.0096 182.293 29.4582C181.701 29.9067 180.905 30.1267 179.915 30.1267C178.959 30.1267 178.172 29.8898 177.562 29.4074C176.953 28.925 176.496 28.2819 176.2 27.4694C175.904 26.657 175.76 25.7515 175.76 24.7614C175.76 23.7797 175.912 22.8827 176.217 22.0703C176.522 21.2579 176.995 20.6063 177.63 20.1239C178.265 19.6415 179.086 19.3961 180.076 19.3961C181.007 19.3961 181.751 19.6161 182.327 20.0647C182.902 20.5132 183.317 21.1394 183.579 21.9434C183.842 22.7473 183.969 23.6867 183.969 24.7529C183.977 25.8277 183.842 26.767 183.579 27.5795Z" fill="#24242F"/>
</svg>
