<svg width="22" height="28" viewBox="0 0 22 28" fill="none" xmlns="http://www.w3.org/2000/svg">
<path fill-rule="evenodd" clip-rule="evenodd" d="M19.0002 19.3332V11.9998C19.0002 7.9065 17.4935 4.47984 13.6668 3.57317V0.666504H8.3335V3.57317C4.52016 4.47984 3.00016 7.89317 3.00016 11.9998V19.3332L0.333496 20.6665V23.3332H21.6668V20.6665L19.0002 19.3332ZM11.0002 27.3332C12.4668 27.3332 13.6668 26.1332 13.6668 24.6665H8.3335C8.3335 26.1332 9.5335 27.3332 11.0002 27.3332ZM5.66683 20.6665H16.3335V11.9998C16.3335 8.69317 15.0002 5.6665 11.0002 5.6665C7.00016 5.6665 5.66683 8.69317 5.66683 11.9998V20.6665Z" fill="currentColor"/>
</svg>
