<svg width="20" height="25" viewBox="0 0 20 25" fill="none" xmlns="http://www.w3.org/2000/svg">
    <path d="M1.30868 21.1604C1.14479 21.1487 1.0063 21.1497 0.871622 21.1274C0.373258 21.045 0.00448751 20.6206 0.00353461 20.1061C-0.000912232 17.9212 -0.0015475 15.7361 0.00385224 13.5512C0.00512277 12.9662 0.46283 12.516 1.03838 12.5044C1.1216 12.5027 1.20514 12.504 1.30868 12.504C1.30868 12.42 1.30868 12.3518 1.30868 12.2839C1.30868 9.09781 1.30837 5.91201 1.309 2.72589C1.30932 1.16191 2.4493 0.00323202 3.98664 0.00290882C7.19662 0.00258562 10.4066 0.00355522 13.6169 0C13.7437 0 13.8307 0.0371682 13.9203 0.127988C15.907 2.14768 17.8961 4.16446 19.8876 6.1793C19.9702 6.26269 20 6.3451 20 6.46081C19.9975 11.7348 19.9981 17.0088 19.9975 22.2832C19.9972 23.8394 18.8607 24.9987 17.331 24.999C12.8727 25.0003 8.41442 25.0003 3.95614 24.999C2.45311 24.9984 1.31027 23.8281 1.30837 22.2945C1.30837 21.9189 1.30868 21.5437 1.30868 21.1604ZM2.91431 21.1484C2.9105 21.2098 2.90478 21.2573 2.90478 21.3045C2.90383 21.6329 2.90129 21.9609 2.90478 22.2893C2.91209 22.9444 3.34312 23.3788 3.98695 23.3788C8.43412 23.3795 12.881 23.3795 17.3281 23.3785C17.9697 23.3785 18.4062 22.9347 18.4046 22.2832C18.3928 17.2251 18.3798 12.1669 18.3671 7.10883C18.3671 7.05712 18.3671 7.0054 18.3671 6.94173C18.2858 6.94173 18.2283 6.94173 18.1708 6.94173C17.1448 6.94367 16.1192 6.94593 15.0933 6.94787C13.9714 6.95014 13.1976 6.16605 13.1967 5.0245C13.1957 3.95373 13.1964 2.88296 13.1964 1.81219C13.1964 1.75046 13.1964 1.68841 13.1964 1.61666C13.1062 1.61666 13.043 1.61666 12.9801 1.61666C9.98702 1.61892 6.99429 1.62118 4.00125 1.62344C3.33009 1.62441 2.90447 2.05912 2.90415 2.74722C2.90351 5.93819 2.90383 9.12916 2.90447 12.3201C2.90447 12.3777 2.90923 12.4352 2.91209 12.5034C2.99563 12.5034 3.0636 12.5034 3.13189 12.5034C7.20361 12.5034 11.2753 12.5034 15.3467 12.5034C16.09 12.5034 16.5112 12.9284 16.5115 13.6792C16.5121 15.7778 16.5121 17.8763 16.5115 19.9749C16.5112 20.716 16.0859 21.1481 15.3588 21.1481C11.2871 21.1481 7.21536 21.1481 3.14396 21.1481C3.0709 21.1484 2.99753 21.1484 2.91431 21.1484ZM6.57978 19.1807C7.30303 19.2583 7.99769 19.2977 8.68949 19.1539C9.35557 19.0153 9.90825 18.706 10.2364 18.067C10.3879 17.7719 10.4597 17.4552 10.4965 17.1265C10.6452 15.7997 9.90539 14.8453 8.60405 14.6924C7.99197 14.6207 7.38149 14.6546 6.76973 14.7144C6.6071 14.7303 6.57597 14.7907 6.57661 14.9429C6.58201 16.2871 6.57978 17.631 6.57978 18.9752C6.57978 19.0385 6.57978 19.1019 6.57978 19.1807ZM3.75445 17.6048C3.83132 17.6048 3.88372 17.6032 3.93613 17.6051C4.3084 17.6177 4.67526 17.5883 5.02688 17.451C5.6685 17.2005 5.99375 16.6556 5.94039 15.9222C5.89656 15.3162 5.48586 14.8608 4.83281 14.7251C4.20421 14.5942 3.57149 14.6566 2.93909 14.7154C2.78631 14.7296 2.75518 14.7881 2.75581 14.9345C2.76153 16.2891 2.75931 17.6439 2.75931 18.9985C2.75931 19.0608 2.75931 19.1232 2.75931 19.1879C3.10108 19.1879 3.4203 19.1879 3.75381 19.1879C3.75445 18.6575 3.75445 18.1381 3.75445 17.6048ZM13.757 17.3808C13.757 17.1029 13.757 16.8375 13.757 16.5505C13.2275 16.5505 12.7075 16.5505 12.1831 16.5505C12.1831 16.1989 12.1831 15.8689 12.1831 15.5195C12.7514 15.5195 13.3082 15.5195 13.8643 15.5195C13.8643 15.2335 13.8643 14.9668 13.8643 14.696C12.9629 14.696 12.0723 14.696 11.174 14.696C11.174 16.1982 11.174 17.6901 11.174 19.1875C11.5088 19.1875 11.8331 19.1875 12.1768 19.1875C12.1768 18.5815 12.1768 17.9875 12.1768 17.3812C12.7133 17.3808 13.23 17.3808 13.757 17.3808Z" fill="currentColor"/>
    <path d="M7.60236 18.4378C7.60236 17.433 7.60236 16.4605 7.60236 15.4776C8.01814 15.4127 8.41962 15.4114 8.79919 15.6082C9.12731 15.7785 9.31503 16.0629 9.39221 16.4223C9.46209 16.7475 9.45605 17.0755 9.38014 17.3987C9.23403 18.0203 8.80459 18.3864 8.16234 18.4356C7.98002 18.4495 7.79611 18.4378 7.60236 18.4378Z" fill="currentColor"/>
    <path d="M3.75675 16.791C3.75675 16.3699 3.75452 15.962 3.76056 15.5541C3.76119 15.5179 3.81392 15.453 3.84441 15.452C4.04389 15.4452 4.24812 15.4271 4.44315 15.4601C4.7503 15.5121 4.92404 15.7251 4.9485 16.0186C4.97518 16.3389 4.83193 16.6045 4.55686 16.7267C4.30625 16.8379 4.04484 16.8398 3.75675 16.791Z" fill="currentColor"/>
</svg>
