<svg width="11" height="9" viewBox="0 0 11 9" fill="none" xmlns="http://www.w3.org/2000/svg">
    <path d="M1.69912 3.48499C1.30423 3.09888 0.671105 3.106 0.284993 3.50088C-0.101119 3.89577 -0.0940049 4.52889 0.300882 4.91501L1.69912 3.48499ZM3.86364 7L3.16452 7.71501L3.86364 8.39859L4.56275 7.71501L3.86364 7ZM10.6991 1.71501C11.094 1.32889 11.1011 0.69577 10.715 0.300882C10.3289 -0.0940049 9.69577 -0.101119 9.30088 0.284993L10.6991 1.71501ZM0.300882 4.91501L3.16452 7.71501L4.56275 6.28499L1.69912 3.48499L0.300882 4.91501ZM4.56275 7.71501L10.6991 1.71501L9.30088 0.284993L3.16452 6.28499L4.56275 7.71501Z"
          fill="currentColor"/>
</svg>
