<svg width="20" height="15" viewBox="0 0 20 15" fill="none" xmlns="http://www.w3.org/2000/svg">
<path fill-rule="evenodd" clip-rule="evenodd" d="M10 4C10 6.20914 8.20914 8 6 8C3.79086 8 2 6.20914 2 4C2 1.79086 3.79086 0 6 0C8.20914 0 10 1.79086 10 4ZM8 4C8 5.10457 7.10457 6 6 6C4.89543 6 4 5.10457 4 4C4 2.89543 4.89543 2 6 2C7.10457 2 8 2.89543 8 4Z" fill="#3FE994"/>
<path d="M13.994 8.58399L18.294 4.29199L19.706 5.70799L13.994 11.41L11.288 8.70599L12.702 7.29199L13.994 8.58399Z" fill="#3FE994"/>
<path d="M10 15H12C12 11.6863 9.31371 9 6 9C2.68629 9 0 11.6863 0 15H2C2 12.7909 3.79086 11 6 11C8.20914 11 10 12.7909 10 15Z" fill="#3FE994"/>
</svg>
