<svg width="277" height="46" viewBox="0 0 277 46" fill="none" xmlns="http://www.w3.org/2000/svg">
<path d="M63.037 15.1669C63.0244 15.5318 62.9063 15.8853 62.6969 16.1844C62.4875 16.4835 62.1959 16.7155 61.8573 16.8523L33.275 29.9562C32.7738 30.1913 32.2343 30.334 31.6824 30.3775C31.2616 30.4056 30.8407 30.3244 30.4606 30.1416L11.1894 21.4365L21.9078 16.6332C22.0971 16.5671 22.2714 16.4641 22.4206 16.3302C22.5699 16.1964 22.6911 16.0342 22.7773 15.8532C22.8635 15.6722 22.9129 15.4759 22.9228 15.2756C22.9326 15.0754 22.9027 14.8751 22.8347 14.6865C22.8102 14.6177 22.7821 14.5501 22.7504 14.4843C22.5156 14.0893 22.1425 13.7956 21.7035 13.6601C21.2644 13.5247 20.7907 13.5571 20.3742 13.7511L7.24586 19.65L1.11987 16.8523C0.673022 16.6644 0.31905 16.3067 0.13576 15.858C-0.04753 15.4092 -0.0451381 14.906 0.14241 14.459C0.329282 14.0188 0.679715 13.6683 1.11987 13.4815L30.4606 0.234274C30.7843 0.0800365 31.1384 0 31.497 0C31.8556 0 32.2097 0.0800365 32.5335 0.234274L61.8573 13.4815C62.1929 13.6225 62.4817 13.8556 62.6905 14.1538C62.8992 14.4521 63.0193 14.8033 63.037 15.1669Z" fill="#FFC600"/>
<path d="M36.915 31.9449C35.9622 32.4494 34.9737 32.8832 33.9573 33.2427C33.2186 33.5462 32.4365 33.731 31.6401 33.7904H31.4968C30.793 33.7095 30.1118 33.492 29.4913 33.15C27.4606 32.2483 26.4494 31.8017 26.0112 31.5573C25.7191 31.3944 23.1097 30.1921 18.1831 27.9506L14.6777 26.3747V33.7062C14.6777 40.018 22.2025 45.15 31.5305 45.15C40.8585 45.15 48.3833 40.018 48.3833 33.7062V26.1725C43.5634 28.5236 41.7012 29.6528 36.915 31.9449Z" fill="#FFC600"/>
<path d="M8.19059 23.2989V32.1051C8.14806 32.599 8.30065 33.0899 8.61566 33.4726C8.93066 33.8554 9.38304 34.0996 9.87587 34.1528C10.3651 34.11 10.8174 33.8747 11.1334 33.4987C11.4494 33.1226 11.6032 32.6366 11.5611 32.1472L11.6201 25.1528V25.0433L8.19059 23.2989Z" fill="black"/>
<path d="M94.7192 33.9421C94.9169 33.8033 95.1361 33.6979 95.368 33.6303C95.5145 33.5964 95.6643 33.5795 95.8146 33.5798C95.95 33.5887 96.0811 33.6301 96.197 33.7005C96.3129 33.7709 96.4101 33.8683 96.4803 33.9843L97.028 34.7427L98.6459 37.077C98.7206 37.1787 98.7829 37.289 98.8313 37.4056C98.8705 37.5023 98.8933 37.6048 98.8987 37.709C98.8982 37.9517 98.8082 38.1858 98.6459 38.3663C98.443 38.5776 98.2231 38.7721 97.9886 38.9478C96.691 39.8913 95.2743 40.6592 93.7754 41.2315C92.1952 41.8131 90.5213 42.0987 88.8376 42.0742C87.5045 42.0765 86.1775 41.895 84.894 41.5348C83.6449 41.1906 82.4464 40.6835 81.3297 40.0264C80.2498 39.3751 79.2537 38.594 78.3636 37.7006C77.4527 36.7957 76.6599 35.7792 76.0042 34.6753C74.6375 32.3827 73.9236 29.7601 73.9397 27.091C73.9346 25.7416 74.1132 24.3978 74.4706 23.0966C74.8198 21.8371 75.3355 20.6298 76.0042 19.5067C77.9885 16.1652 81.1748 13.7083 84.9109 12.6388C87.7827 11.8461 90.826 11.9312 93.6491 12.8832C95.1077 13.3616 96.4793 14.0731 97.7106 14.9899C97.9062 15.1911 98.1145 15.3797 98.3341 15.5545C98.4438 15.6423 98.5298 15.7562 98.5842 15.8857C98.6387 16.0152 98.6599 16.1563 98.6459 16.2961V16.6163C98.6383 16.7387 98.5943 16.8561 98.5195 16.9534L96.6488 19.8101C96.5504 19.999 96.4063 20.1604 96.2298 20.2795C96.0532 20.3987 95.8497 20.472 95.6377 20.4927C95.3214 20.4612 95.0248 20.3247 94.795 20.1051C93.9841 19.4268 93.0675 18.8859 92.0817 18.5039C91.0657 18.0987 89.982 17.8899 88.8881 17.8888C87.7232 17.8801 86.5713 18.1336 85.5176 18.6303C84.4854 19.1262 83.554 19.8091 82.7706 20.6444C81.1047 22.3842 80.1706 24.6974 80.1612 27.1062C80.1518 29.515 81.0678 31.8354 82.72 33.5882C83.5049 34.4065 84.4368 35.0698 85.467 35.5433C86.5251 36.0242 87.6754 36.2686 88.8376 36.2596C89.997 36.2854 91.1478 36.0552 92.2081 35.5854C93.1046 35.1343 93.947 34.583 94.7192 33.9421Z" fill="black"/>
<path d="M125.451 38.3494C124.136 39.4701 122.655 40.3798 121.061 41.0461C119.394 41.7101 117.614 42.0422 115.82 42.0236C113.812 42.0312 111.824 41.6358 109.972 40.8607C106.339 39.3513 103.424 36.5033 101.832 32.9056C101.008 31.0493 100.591 29.0378 100.61 27.0067C100.611 24.3894 101.275 21.8149 102.54 19.5236C103.156 18.4197 103.912 17.4 104.789 16.4899C105.664 15.5733 106.659 14.7795 107.747 14.1303C108.852 13.4632 110.043 12.9501 111.286 12.6051C112.598 12.2434 113.953 12.0648 115.314 12.0742C116.47 12.0709 117.622 12.2125 118.744 12.4955C120.969 13.0503 123.038 14.1051 124.794 15.5798C125.671 16.3223 126.453 17.1716 127.119 18.1079C128.021 19.3624 128.702 20.7617 129.133 22.2455C129.573 23.8427 129.789 25.4934 129.774 27.15C129.775 27.5216 129.755 27.893 129.715 28.2624C129.688 28.5232 129.589 28.7712 129.428 28.9787C129.249 29.1814 129.01 29.3229 128.746 29.3832C128.326 29.4797 127.895 29.5222 127.465 29.5096H107.242C107.416 30.5453 107.801 31.5346 108.371 32.4169C108.918 33.2349 109.599 33.9555 110.385 34.5489C111.131 35.1297 111.972 35.5773 112.87 35.8719C113.74 36.1634 114.65 36.3142 115.567 36.3185C116.23 36.3202 116.891 36.2496 117.539 36.1079C118.144 35.9804 118.737 35.797 119.308 35.5601C119.837 35.3412 120.347 35.0791 120.833 34.7764C121.267 34.5043 121.676 34.1941 122.055 33.8494C122.221 33.7034 122.399 33.571 122.586 33.4534C122.742 33.3526 122.923 33.2999 123.108 33.3017C123.272 33.3118 123.431 33.3609 123.572 33.4449C123.775 33.5568 123.95 33.7122 124.086 33.9L125.139 35.1556L125.847 35.9983C126.001 36.1823 126.134 36.383 126.243 36.5966C126.327 36.7441 126.379 36.9079 126.395 37.077C126.354 37.3502 126.246 37.6091 126.082 37.831C125.917 38.0529 125.701 38.2309 125.451 38.3494ZM115.339 17.7539C114.443 17.7547 113.555 17.9204 112.719 18.2427C111.876 18.5665 111.089 19.0184 110.385 19.5826C109.67 20.1451 109.045 20.8129 108.531 21.5629C108.008 22.3131 107.62 23.1486 107.385 24.032H123.547C123.311 23.1377 122.938 22.285 122.443 21.5039C121.954 20.7495 121.348 20.0781 120.648 19.5152C119.928 18.9491 119.116 18.5128 118.246 18.2258C117.312 17.9136 116.333 17.7543 115.348 17.7539H115.339Z" fill="black"/>
<path d="M134.157 13.8944C134.142 13.7033 134.175 13.5116 134.253 13.3365C134.331 13.1614 134.452 13.0085 134.603 12.8916C134.876 12.6658 135.219 12.5434 135.572 12.5461H138.488C138.645 12.5381 138.802 12.565 138.948 12.6247C139.093 12.6844 139.224 12.7756 139.331 12.8916C139.54 13.137 139.695 13.4243 139.786 13.7343C139.898 14.0885 139.977 14.4524 140.022 14.8214C140.037 15.18 140.091 15.5359 140.182 15.8832C140.528 15.3984 140.905 14.9367 141.311 14.5011C141.736 14.0441 142.214 13.6395 142.735 13.2961C143.952 12.5116 145.374 12.1068 146.822 12.1332C147.51 12.1246 148.198 12.1754 148.878 12.2848C149.474 12.3858 150.06 12.5381 150.63 12.7399C151.199 12.9664 151.744 13.2487 152.257 13.5826C152.839 13.9368 153.401 14.3222 153.942 14.7371C154.187 14.8995 154.413 15.0888 154.616 15.3017C154.798 15.512 154.897 15.7818 154.894 16.0601C154.881 16.1907 154.858 16.3202 154.827 16.4478C154.794 16.5953 154.734 16.7354 154.65 16.8607L152.771 19.827C152.662 19.9723 152.517 20.0858 152.349 20.1556C152.216 20.214 152.073 20.2482 151.928 20.2568C151.681 20.2573 151.438 20.1965 151.22 20.0798C150.723 19.8017 150.26 19.5489 149.855 19.3045C149.463 19.0707 149.058 18.8596 148.642 18.6725C148.248 18.4973 147.839 18.359 147.42 18.2596C146.957 18.1615 146.486 18.1134 146.013 18.1163C144.769 18.0917 143.563 18.544 142.642 19.3803C141.635 20.3409 140.961 21.599 140.721 22.9702V40.1781C140.721 41.0882 140.249 41.5433 139.297 41.5433H135.539C134.595 41.5433 134.123 41.0882 134.123 40.1781L134.157 13.8944Z" fill="black"/>
<path d="M170.828 41.5433C169.683 41.5388 168.545 41.354 167.457 40.9955C166.445 40.6767 165.506 40.1612 164.694 39.4787C163.903 38.8105 163.27 37.976 162.84 37.0348C162.36 36.001 162.124 34.8709 162.149 33.7315V18.3017H159.528C159.172 18.3278 158.818 18.2229 158.534 18.0067C158.414 17.8761 158.322 17.7215 158.265 17.553C158.209 17.3846 158.188 17.2061 158.205 17.0292V13.7511C158.188 13.5806 158.208 13.4084 158.265 13.2467C158.322 13.0849 158.414 12.9378 158.534 12.8157C158.824 12.6139 159.176 12.5186 159.528 12.5461H162.149V7.72585C162.142 7.59282 162.164 7.45985 162.213 7.33616C162.263 7.21248 162.339 7.10103 162.435 7.00956C162.682 6.79776 162.969 6.63732 163.278 6.53765L164.314 6.20899L165.444 5.82978C165.84 5.7118 166.21 5.61068 166.581 5.52641C166.879 5.4502 167.184 5.4078 167.491 5.40001C167.963 5.40001 168.275 5.52641 168.418 5.78765C168.572 6.10789 168.644 6.46095 168.629 6.81574V12.5461H171.898C172.062 12.5341 172.227 12.5547 172.384 12.6068C172.54 12.6588 172.684 12.7413 172.808 12.8494C172.926 12.9801 173.015 13.1337 173.07 13.3005C173.125 13.4673 173.145 13.6437 173.128 13.8185V16.9365C173.147 17.1232 173.128 17.3116 173.073 17.4909C173.018 17.6703 172.928 17.837 172.808 17.9815C172.687 18.0947 172.543 18.1815 172.387 18.2366C172.23 18.2917 172.064 18.3139 171.898 18.3017H168.612V30.032C168.604 30.0624 168.604 30.0944 168.612 30.1247V33.1163C168.541 33.8883 168.75 34.6601 169.202 35.2905C169.457 35.5295 169.761 35.7117 170.092 35.825C170.423 35.9383 170.774 35.9801 171.123 35.9478C171.266 35.9414 171.409 35.9695 171.54 36.0296C171.67 36.0897 171.784 36.1801 171.873 36.2933C172.064 36.5317 172.162 36.8308 172.151 37.136V40.3045C172.167 40.6446 172.049 40.9776 171.822 41.2315C171.689 41.3516 171.531 41.4416 171.359 41.4954C171.188 41.5492 171.006 41.5655 170.828 41.5433Z" fill="black"/>
<path d="M178.909 3.82416C178.86 3.50913 178.938 3.18772 179.126 2.93028C179.314 2.67284 179.596 2.50035 179.911 2.45057C180.037 2.43366 180.165 2.43366 180.29 2.45057H184.124C184.498 2.43589 184.864 2.55884 185.153 2.79607C185.288 2.929 185.393 3.08983 185.46 3.26738C185.527 3.44492 185.554 3.63493 185.54 3.82416V7.24551C185.533 7.60798 185.405 7.95778 185.178 8.23989C185.056 8.39401 184.899 8.5171 184.72 8.59911C184.542 8.68112 184.346 8.71974 184.15 8.7118H180.324C179.406 8.7118 178.951 8.22304 178.951 7.24551L178.909 3.82416ZM178.909 13.9365C178.897 13.5738 179.02 13.2198 179.254 12.9421C179.381 12.8058 179.537 12.6995 179.711 12.631C179.884 12.5625 180.071 12.5335 180.257 12.5461H184.049C184.216 12.5468 184.382 12.5782 184.537 12.6388C184.709 12.7075 184.866 12.8075 185.001 12.9337C185.139 13.0636 185.255 13.2143 185.346 13.3803C185.437 13.5484 185.484 13.737 185.481 13.9281V40.1781C185.481 41.0882 185.001 41.5433 184.04 41.5433H180.324C180.006 41.589 179.682 41.5064 179.425 41.3136C179.167 41.1208 178.997 40.8336 178.951 40.5152C178.934 40.4034 178.934 40.2898 178.951 40.1781L178.909 13.9365Z" fill="black"/>
<path d="M194.531 12.6388C194.524 11.308 194.732 9.98482 195.146 8.72023C195.532 7.50922 196.143 6.38248 196.949 5.40001C197.772 4.38994 198.815 3.58102 199.998 3.03485C201.181 2.48868 202.472 2.21967 203.775 2.24832H204.002C204.192 2.23603 204.382 2.26508 204.56 2.33346C204.737 2.40184 204.898 2.50792 205.03 2.64439C205.283 2.94885 205.412 3.33659 205.393 3.73147V6.88315C205.405 7.28607 205.28 7.68127 205.039 8.00394C204.927 8.15295 204.78 8.27228 204.611 8.35159C204.442 8.43089 204.256 8.46776 204.07 8.459C203.783 8.47685 203.499 8.53355 203.227 8.62754C202.866 8.75132 202.527 8.93351 202.224 9.16686C201.885 9.4209 201.601 9.74217 201.39 10.1107C201.147 10.5171 201.027 10.9856 201.045 11.459V15.1669H204.356C204.729 15.1449 205.097 15.2654 205.384 15.5039C205.518 15.661 205.619 15.8433 205.682 16.0402C205.744 16.2371 205.766 16.4444 205.747 16.65V19.4562C205.781 19.8891 205.652 20.319 205.384 20.6612C205.25 20.7946 205.089 20.8987 204.912 20.9669C204.735 21.035 204.546 21.0658 204.356 21.0573H201.045V40.0601C201.058 40.2703 201.022 40.4807 200.938 40.6741C200.855 40.8675 200.727 41.0383 200.564 41.1725C200.266 41.4122 199.894 41.543 199.511 41.5433H195.972C195.775 41.5562 195.577 41.5251 195.394 41.4522C195.21 41.3794 195.045 41.2665 194.91 41.1219C194.653 40.8299 194.52 40.4489 194.54 40.0601V21.0657H192.273C192.077 21.0741 191.882 21.0434 191.698 20.9754C191.514 20.9074 191.346 20.8035 191.203 20.6697C191.055 20.508 190.942 20.3176 190.871 20.1102C190.799 19.9029 190.772 19.6831 190.79 19.4646V16.6332C190.77 16.4235 190.796 16.2119 190.868 16.0137C190.939 15.8156 191.053 15.6357 191.203 15.4871C191.508 15.2513 191.887 15.1319 192.273 15.15H194.54L194.531 12.6388Z" fill="black"/>
<path d="M209.529 3.82416C209.506 3.66755 209.513 3.50776 209.551 3.35393C209.588 3.2001 209.656 3.05525 209.75 2.92767C209.844 2.80009 209.962 2.69228 210.098 2.61041C210.234 2.52854 210.384 2.47422 210.541 2.45056C210.652 2.4337 210.766 2.4337 210.878 2.45056H214.712C215.085 2.43588 215.451 2.55883 215.74 2.79607C215.875 2.92899 215.98 3.08982 216.047 3.26737C216.114 3.44492 216.141 3.63492 216.127 3.82416V7.2455C216.12 7.60797 215.993 7.95777 215.765 8.23989C215.643 8.39401 215.486 8.51709 215.308 8.59911C215.129 8.68112 214.933 8.71973 214.737 8.7118H210.903C209.984 8.7118 209.529 8.22303 209.529 7.2455V3.82416ZM209.529 13.9365C209.514 13.5732 209.638 13.2177 209.875 12.9421C210.001 12.8048 210.157 12.6979 210.331 12.6293C210.505 12.5607 210.691 12.5322 210.878 12.5461H214.67C214.846 12.5463 215.02 12.5806 215.184 12.6472C215.355 12.716 215.512 12.816 215.647 12.9421C215.783 13.0737 215.899 13.2241 215.992 13.3888C216.083 13.5569 216.13 13.7454 216.127 13.9365V40.1781C216.127 41.0882 215.647 41.5433 214.686 41.5433H210.903C210.585 41.589 210.261 41.5064 210.003 41.3136C209.746 41.1208 209.575 40.8336 209.529 40.5152C209.513 40.4034 209.513 40.2898 209.529 40.1781V13.9365Z" fill="black"/>
<path d="M246.893 38.3494C245.576 39.4721 244.092 40.3819 242.494 41.0461C240.827 41.7101 239.047 42.0422 237.253 42.0236C235.248 42.0322 233.262 41.6367 231.413 40.8607C227.784 39.3548 224.876 36.5046 223.299 32.9056C222.474 31.0493 222.058 29.0378 222.077 27.0067C222.06 24.3872 222.725 21.8084 224.006 19.5236C224.623 18.4197 225.379 17.4 226.256 16.4899C227.126 15.5715 228.119 14.7775 229.206 14.1303C231.494 12.7547 234.12 12.0428 236.789 12.0742C237.943 12.0709 239.092 12.2125 240.21 12.4955C241.323 12.7707 242.4 13.1721 243.421 13.6921C244.434 14.2153 245.386 14.8483 246.261 15.5798C248.344 17.3015 249.856 19.6136 250.6 22.2118C251.045 23.8081 251.26 25.4594 251.241 27.1163C251.221 27.4897 251.176 27.8614 251.106 28.2287C251.081 28.4899 250.981 28.7385 250.819 28.9449C250.64 29.1477 250.401 29.2892 250.137 29.3494C249.717 29.446 249.286 29.4885 248.856 29.4758H228.633C228.803 30.5127 229.188 31.5027 229.762 32.3832C230.303 33.2132 230.981 33.9454 231.767 34.5489C232.528 35.1304 233.383 35.5778 234.295 35.8719C235.161 36.1633 236.069 36.3141 236.983 36.3185C237.649 36.3202 238.313 36.2496 238.963 36.1079C239.569 35.9804 240.161 35.797 240.733 35.5601C241.259 35.3412 241.766 35.079 242.25 34.7764C242.684 34.5043 243.092 34.194 243.471 33.8494C243.632 33.7008 243.807 33.5681 243.994 33.4534C244.149 33.3526 244.331 33.2999 244.516 33.3017C244.683 33.3104 244.845 33.3596 244.988 33.4449C245.188 33.5616 245.362 33.7162 245.502 33.9C245.915 34.3972 246.261 34.8185 246.555 35.1556L247.263 35.9983C247.413 36.1858 247.545 36.386 247.659 36.5966C247.74 36.7503 247.783 36.9205 247.786 37.0938C247.747 37.3591 247.646 37.6113 247.491 37.8297C247.336 38.0481 247.131 38.2262 246.893 38.3494ZM236.781 17.7539C235.882 17.7506 234.99 17.9164 234.152 18.2427C233.306 18.5656 232.516 19.0176 231.809 19.5826C231.097 20.1454 230.475 20.8131 229.964 21.5629C229.442 22.3146 229.052 23.1495 228.81 24.032H244.98C244.742 23.1367 244.367 22.2838 243.867 21.5039C243.382 20.7477 242.775 20.0759 242.073 19.5152C241.356 18.9493 240.546 18.5129 239.68 18.2258C238.745 17.9136 237.766 17.7543 236.781 17.7539Z" fill="black"/>
<path d="M256.244 13.8944C256.233 13.7036 256.267 13.5129 256.345 13.3383C256.423 13.1637 256.541 13.0105 256.691 12.8916C256.967 12.667 257.313 12.545 257.668 12.5461H260.576C260.733 12.5381 260.89 12.565 261.035 12.6247C261.181 12.6844 261.312 12.7755 261.418 12.8916C261.631 13.1365 261.789 13.4238 261.882 13.7343C261.992 14.0887 262.068 14.4526 262.109 14.8214C262.151 15.209 262.21 15.5629 262.269 15.8831C262.617 15.4 262.994 14.9385 263.398 14.5011C263.828 14.0458 264.309 13.6415 264.831 13.2961C265.389 12.9312 265.996 12.6475 266.634 12.4534C267.375 12.2334 268.145 12.1254 268.918 12.1331C269.606 12.1246 270.294 12.1754 270.974 12.2848C271.567 12.3858 272.151 12.5381 272.718 12.7399C273.29 12.9648 273.838 13.2471 274.353 13.5826C274.934 13.9388 275.496 14.3241 276.038 14.7371C276.285 14.8969 276.511 15.0865 276.712 15.3017C276.897 15.5111 276.999 15.7808 276.999 16.0601C276.987 16.191 276.964 16.3207 276.931 16.4478C276.89 16.5939 276.828 16.7331 276.746 16.8607L274.875 19.827C274.763 19.9682 274.618 20.0808 274.454 20.1556C274.32 20.214 274.178 20.2482 274.033 20.2567C273.786 20.2573 273.542 20.1965 273.325 20.0798C272.819 19.8017 272.364 19.5489 271.951 19.3045C271.559 19.0707 271.154 18.8596 270.738 18.6725C270.344 18.4973 269.935 18.359 269.516 18.2596C269.056 18.1615 268.587 18.1134 268.117 18.1163C266.873 18.0891 265.666 18.5417 264.747 19.3803C263.773 20.3522 263.127 21.6046 262.901 22.9618V40.1781C262.901 41.0882 262.429 41.5433 261.486 41.5433H257.727C256.775 41.5433 256.303 41.0882 256.303 40.1781L256.244 13.8944Z" fill="black"/>
</svg>
