<?xml version="1.0" standalone="no"?>
<!DOCTYPE svg PUBLIC "-//W3C//DTD SVG 20010904//EN"
 "http://www.w3.org/TR/2001/REC-SVG-20010904/DTD/svg10.dtd">
<svg version="1.0" xmlns="http://www.w3.org/2000/svg"
 width="512.000000pt" height="512.000000pt" viewBox="0 0 512.000000 512.000000"
 preserveAspectRatio="xMidYMid meet">
<metadata>
Created by potrace 1.11, written by Peter Selinger 2001-2013
</metadata>
<g transform="translate(0.000000,512.000000) scale(0.100000,-0.100000)"
fill="#000000" stroke="none">
<path d="M2510 4323 c-8 -2 -28 -11 -45 -18 -76 -34 -237 -106 -308 -139 -43
-20 -80 -36 -82 -36 -2 0 -41 -17 -87 -39 -45 -21 -105 -49 -133 -61 -27 -12
-72 -32 -100 -45 -27 -13 -93 -42 -145 -65 -52 -24 -133 -60 -178 -81 -46 -22
-85 -39 -87 -39 -2 0 -36 -15 -77 -34 -69 -32 -107 -49 -215 -97 -27 -12 -97
-44 -158 -71 -178 -81 -218 -99 -355 -160 -273 -123 -375 -171 -397 -187 -49
-35 -61 -125 -25 -183 24 -37 41 -47 277 -154 94 -42 191 -86 216 -98 50 -25
39 -27 169 32 41 19 120 54 175 79 55 24 114 50 130 58 128 58 541 242 588
261 54 23 78 24 130 8 23 -7 76 -60 78 -78 0 -6 2 -18 4 -27 1 -9 -5 -35 -16
-58 -15 -35 -28 -46 -81 -70 -35 -15 -85 -38 -113 -51 -27 -12 -99 -45 -160
-72 -60 -27 -128 -58 -150 -68 -106 -48 -362 -163 -378 -169 -14 -5 12 -21
100 -61 65 -29 147 -66 183 -83 36 -16 110 -49 165 -74 162 -73 208 -94 250
-114 261 -123 828 -370 855 -373 52 -4 110 10 186 45 38 17 94 43 124 56 30
14 97 45 149 69 51 24 95 44 97 44 2 0 52 23 110 50 58 28 107 50 109 50 1 0
45 20 96 44 52 24 114 53 139 64 25 11 86 39 135 62 50 23 128 59 175 80 90
40 167 76 319 146 51 24 95 44 96 44 2 0 49 22 106 49 57 26 127 59 154 71 28
12 79 36 115 52 36 17 90 42 120 55 158 72 197 93 216 114 45 53 50 106 13
165 -21 35 -63 58 -254 144 -112 51 -467 211 -515 233 -30 14 -102 46 -160 72
-58 26 -220 99 -360 162 -140 63 -275 124 -300 136 -25 11 -193 87 -373 168
-180 82 -354 160 -387 174 -56 24 -106 30 -140 18z"/>
<path d="M735 2132 c0 -345 2 -370 19 -398 52 -79 133 -97 197 -41 51 44 52
51 55 374 l2 303 -129 65 c-71 36 -132 65 -137 65 -4 0 -7 -166 -7 -368z"/>
<path d="M3655 2169 c-902 -458 -1001 -500 -1128 -477 -44 8 -250 95 -382 161
-56 28 -357 168 -505 235 -25 11 -121 54 -213 96 -93 42 -172 74 -176 72 -8
-6 -6 -620 3 -666 45 -230 193 -419 451 -577 140 -85 432 -181 605 -198 41 -4
89 -9 105 -11 39 -4 261 -4 300 0 17 2 61 7 99 10 38 4 73 9 77 12 4 2 20 6
36 8 172 26 433 131 578 234 107 75 227 199 273 281 8 13 22 38 31 55 17 29
43 100 58 157 7 26 16 593 11 672 l-3 48 -220 -112z"/>
</g>
</svg>
